<svg width="196" height="137" fill="none" xmlns="http://www.w3.org/2000/svg"><path fill-rule="evenodd" clip-rule="evenodd" d="M175 112.4c-.7 0-1.2-.1-1.5.4 0 .1 0 .4.3.5.6 0 .9-.3 1.2-.9ZM40 84c-.2-.5-.8-.4-.8-1 0 0-1 .7-.9 1 .5.3 1-.2 1.7 0ZM72 99c1-.4 2.2.2 3.4-.6-1.3 0-2.4.1-3.4.6Zm15.7-.3c1 0 2 0 3-1.2-1.4.2-2.2.6-3 1.2Zm-18.8 1.9c1.5 0 2.9 0 4.2-.8-1.5.1-2.9 0-4.2.8Zm39 19.8c-1.9 0-3.8-.4-5.5.6 1.8-.4 3.7-.2 5.5-.6Zm69-6-.2-.2-6.2 3.4.2.2c2.2-.8 4.1-2.1 6.2-3.4ZM10.6 111c1.5 1.9 2.2 2 3.4.3-1.4.8-2.1-1-3.4-.3Zm85.7 10c-2.5-.5-4.8.5-7.2 1 2.5.2 4.8-.5 7.2-1ZM9 86.2c3.2-2 6.5-4 9.8-5.7A34.4 34.4 0 0 0 9 86.3Zm83.1-6c-3 .6-6 1.4-9 2.4 3.2-.2 6.3-.7 9-2.4ZM5 103c-.2.7 0 1.1.1 1.6.8 2.2 2.5 3.8 4.1 5.4.8.7 1 .7 2 .2-2.7-.6-4-2.2-3-3.7-.5-.3-1.6-.6-1.4-1 .6-1-.3-1-.6-1.2-.4-.4-1-.6-1.2-1.3ZM190 98c-4.9 5-10 9.8-14.6 15.1A38 38 0 0 0 190 98ZM81.8 129.6c1.6.5 3.1.5 4.6.6 12 .3 23.9-1.2 35.8-2.2-.9-.2-39 1.4-40.4 1.6Zm-6.1-52c-1 0-2-.3-2.9.3-.3.2-.7 0-1-.1-.5-.3-1.1-.1-1.4.1-.5.6-1 .4-1.4.4h-1c-2.6.6-5.2.4-7.7.8-1 .2-2.1-.2-3.1.4-.4.2-.7.8-1 .6-.5-.3.3-.7 0-1.2-.9 1-2 1.7-3.2 1.7-1.1 0-2.4.8-3.2-.7.5.9.3 1.3-.5 1.5l-3 .5c-.8.2-1.6.6-2.4.5-1-.2-2 1.1-3.1.4-.2-.1-.6.1-.4.6.3.5 1.3.7 1.8.3.7-.6 1.7 0 2.3-.7.6 1 1 .2 1.6 0 0-.1.2-.2.4 0 .5.4 1.3.3 2 1 0-.7-.6-1.2-.2-1.3.7-.3.5.7 1 1 .1-.7.6-1 1.2-.9 2 .4 4-.5 5.8-1 1-.3 2.2-.4 3.3-.5 2-.2 3.8-.7 5.7-1l6.6-1.4c1.3-.4 2.7-.3 3.7-1.2 1.7 0 2.4-.5 2.4-1.5-.7.6-1.8.6-2.3 1.5Zm102.3 41c-1.3 1.2-3 2-4.6 2.5-1.3.5-2.7.7-3.7 1.7-.3.2-.6.5-1 .2-.2-.2-.4-.1-.5 0-.1.8-.5.8-1 .6-.5-.1-.7 0-.4.4l-.9.4a135 135 0 0 1-15.4 4.7c-2.7.6-5.3 2-8 2.8-4.9 1.6-10 2.3-15.1 2.6-3.2.2-6.3 0-9.4.4-6.3.5-12.7.7-19 1.3l-12 .6c-3.7.2-7.3-.3-10.9-1-5.8-1-11.6-2-17.4-2.8-10.2-1.5-20-4-29.7-7.7-6-2.4-11.7-5.2-17-8.8-3.6-2.6-7-5.5-9.5-9.4a13.8 13.8 0 0 1 .8-17 35 35 0 0 1 12-9.3 61.6 61.6 0 0 1 26.4-6.7c6.3-.3 12.6-.3 19-.3 2.5 0 4.9-.8 7.3-1.3 4.5-1 9-2 13.4-3.2 1.8-.4 3.6-1 5.2-2 1-.4 2-.4 2.8-1.3.3-.4.9-.1 1.4.1.5.3 1.2.5 1.2-.5s.6-1.8 1.8-2c.5-.1 1-.2 1.2-.7l.1-.2c1.2.1 1.5-1 2.3-1.4l5.2-3.5c1.2-.7 2.3-1.6 3.4-2.4.6-.4 1.2-.7 1.7-1.2l1.6-1.6c1.3-1.2 3-2 4.2-3.1 1.6-1.5 3-3.2 4.4-4.7 3.9-4.2 7.6-8.5 12-12 3.9-3.2 8.4-4.7 13.4-5 2.5-.3 4.9-1.2 7.3-1.8 2.5-.7 4.7-1.8 7-3 1.3-.6 2.2-2 3.2-3.1 3-3.4 5.6-7.1 9.3-9.7 3.1-2.1 6.2-4.4 9.6-6.1C183.3 2.5 187 1 191 .5c6.3-1 12.4-.7 18.5 1.7 2.7 1 5.3 2.5 7.7 4.2A32.7 32.7 0 0 1 229.6 32c0 3 0 6-.6 9l-.8 3.5c-.4 3-1.8 5.8-3 8.5-1.4 2.8-3 5.6-4.5 8.3-1.2 2-2.8 3.8-3.7 6-.4.7-1.1 1.3-1.7 2-.6.7-.8 1.8-1.4 2.6-2.1 2.9-4 5.8-6.2 8.7-3.6 5.1-6.5 10.6-9.7 16l-4.2 6.9-2.6 3.7c-.5.7-1.3 1.4-2 2-.8 1-2.1 1.7-2.6 3-.3.8-.8 1.3-1.6 1.5-1 .4-1.4 1.4-2.3 1.7l-4.7 3.4Z" fill="#3B3D3E"/></svg>