<svg width="182" height="437" viewBox="0 0 182 437" fill="none" xmlns="http://www.w3.org/2000/svg">
<path d="M106.637 124.556C104.184 124.997 101.86 125.66 99.407 126.101C82.2347 129.413 65.1916 134.049 48.7941 143.102C43.8877 145.751 39.1105 149.063 34.4624 152.816C31.4928 155.245 28.6522 158.336 26.1991 162.089C18.9686 172.907 19.7433 188.141 28.1358 196.31C31.751 199.843 35.8826 202.051 39.7561 204.7C40.9181 205.583 42.0802 206.025 43.2422 207.57C42.3384 208.012 41.4346 208.454 40.5308 208.895C33.0421 211.986 25.4244 215.077 18.3231 220.597C14.837 223.246 11.48 226.337 8.25215 229.87C6.31543 231.857 4.63695 234.727 3.21669 237.597C-0.914978 246.208 -1.0441 256.805 2.70021 266.078C4.63693 270.936 7.34834 274.689 10.1889 277.78C15.2243 283.299 20.518 287.274 26.0699 290.585C39.3687 298.754 53.184 304.495 66.9992 309.573C81.3309 314.651 95.7918 319.287 110.123 324.145C111.027 324.365 111.802 324.807 112.706 326.132C111.544 327.015 110.511 327.677 109.349 328.56C100.698 334.521 92.3057 341.366 84.817 350.859C81.3309 355.275 78.1031 360.353 75.1335 365.652C72.4221 370.509 70.7436 376.912 70.3562 383.756C69.7106 393.471 71.7765 401.861 75.6499 408.926C78.8778 414.887 82.8803 418.861 87.1411 422.173C94.5006 427.692 102.247 430.783 110.123 432.77C131.686 438.069 153.377 437.848 174.939 434.316C190.82 431.666 206.443 427.03 221.678 419.082C227.359 415.991 233.04 412.458 238.205 407.38C241.949 403.848 245.306 399.653 248.276 394.133C255.636 379.782 256.41 362.561 250.6 346.665C248.276 340.483 245.435 335.405 242.078 330.768C237.43 324.365 232.524 319.067 227.101 314.872C220.904 310.014 214.577 305.599 208.38 300.962C207.476 300.3 206.572 299.637 205.023 298.534C206.314 297.43 206.959 296.767 207.734 296.105C214.706 290.585 221.678 285.286 228.392 279.325C235.106 273.364 241.304 266.078 246.598 256.585C249.18 251.948 251.504 246.87 253.311 241.571C258.218 226.999 258.476 211.765 254.215 196.31C251.504 186.596 247.501 178.648 242.853 171.362C237.818 163.414 232.137 157.011 226.327 151.05C225.423 150.167 224.39 149.063 223.228 147.738C224.261 146.634 225.035 145.972 225.81 145.309C234.203 138.244 240.787 127.867 245.565 113.958C249.309 102.919 252.279 91.2172 253.57 78.6325C254.861 68.0349 253.311 58.5412 249.438 49.9306C245.048 40.2161 239.496 32.9302 232.782 28.7353C228.392 25.8651 223.873 23.2157 219.225 21.4494C207.734 17.2545 196.114 13.2804 184.623 10.1894C160.478 3.56589 136.205 -0.408227 111.802 0.0333418C97.9867 0.254126 84.1715 2.0204 70.6145 7.31922C64.8043 9.52706 59.1232 12.1765 53.9587 17.0337C50.4726 20.3455 46.8574 23.878 44.0169 28.5145C35.2371 41.9823 35.108 59.8659 43.5004 73.996C45.9536 78.1909 48.7941 82.1651 51.7637 85.0353C57.703 90.7756 63.7714 96.2952 69.9689 100.49C81.2018 108.218 92.693 114.841 103.926 121.685C104.83 122.348 105.734 122.789 106.637 123.452C106.637 123.893 106.637 124.114 106.637 124.556Z" fill="#28261E"/>
</svg>
