<svg width="59" height="125" viewBox="0 0 59 125" fill="none" xmlns="http://www.w3.org/2000/svg">
<path d="M38.2156 55.6616C38.5149 55.2611 38.8146 55.0606 38.9141 54.7604C45.0963 44.5497 50.3779 33.9405 53.4575 22.2351C54.8483 16.9327 55.4389 11.5316 55.7295 6.13112C55.8271 4.73095 56.0245 3.2306 56.2221 1.83026C56.3212 1.33008 56.5202 0.729737 56.8195 0.329216C57.0191 0.128869 57.5188 -0.0720002 57.8189 0.0274782C58.1191 0.126957 58.32 0.626608 58.3205 0.926608C57.9436 14.2273 55.7662 27.2311 49.9873 39.3412C46.998 45.5464 43.9087 51.6517 40.2187 57.4582C39.8198 58.0589 39.3214 58.9597 39.4224 59.5595C40.736 67.3573 39.4492 74.9595 37.1619 82.2635C33.6815 93.5696 29.7008 104.677 25.9203 115.883C25.7215 116.583 25.4229 117.384 25.5246 118.384C31.7163 113.573 37.8077 108.662 44.0992 103.751C44.9011 104.85 44.7025 105.65 44.2039 106.451C43.6055 107.352 43.0072 108.353 42.2086 109.155C37.7161 113.463 33.2236 117.77 28.6309 121.978C27.6324 122.88 26.4337 123.582 25.2347 124.184C22.8366 125.288 20.9347 124.192 20.5302 121.592C19.8213 116.494 19.2126 111.495 18.7038 106.396C18.5012 104.896 19.0996 103.995 20.1992 103.793C21.1991 103.691 22.1003 104.39 22.4029 105.889C22.9074 108.488 23.2119 111.088 23.717 113.987C24.0161 113.486 24.2158 113.286 24.3152 112.986C27.6956 101.68 31.1759 90.3739 34.3561 78.9684C35.3502 75.5666 35.6438 71.8661 36.1377 68.3653C36.3353 66.9649 36.1327 65.4653 36.1295 63.6653C35.4306 64.2665 34.9314 64.7674 34.5321 65.1681C31.538 68.5733 28.1434 71.6792 24.2476 74.0859C20.7513 76.192 17.0535 77.4985 12.8534 77.4058C11.4532 77.3082 9.95303 77.2108 8.55233 76.8132C2.34939 75.124 -0.96034 69.5298 0.42836 63.0273C2.01428 54.9246 10.0971 45.0105 21.7972 45.0902C28.3972 45.0787 33.4026 48.17 37.0121 53.6637C37.4132 54.263 37.8144 54.9623 38.2156 55.6616ZM12.7485 74.6059C16.5483 74.4993 19.7466 73.4938 22.6435 71.6887C27.3387 68.9806 31.1321 65.174 34.525 61.0681C35.3234 60.1667 35.3219 59.2667 35.02 58.1672C33.2101 52.4703 27.2028 48.2808 21.3031 48.491C13.3037 48.8049 5.11549 55.6192 3.42922 63.5221C2.23844 68.8242 4.84556 72.9197 10.0478 74.2106C11.0482 74.4089 12.1483 74.507 12.7485 74.6059Z" fill="#FFC130"/>
</svg>
