<svg width="461" height="575" viewBox="0 0 461 575" fill="none" xmlns="http://www.w3.org/2000/svg">
<path d="M58.4202 238.401C58.2306 235.83 58.0411 233.259 57.8502 231.087C55.5435 209.811 56.0106 188.616 58.4614 166.796C60.509 147.016 67.7025 129.039 82.6141 113.969C87.1873 109.257 92.5521 104.853 97.9142 101.247C111.021 92.5663 122.307 95.0632 128.01 108.172C130.762 114.638 132.522 121.816 133.687 128.862C136.213 143.93 136.557 159.447 135.712 175.101C135.288 183.526 135.062 191.729 135.628 200.241C136.625 198.331 138.019 196.377 139.016 194.468C149.383 175.729 160.342 157.521 173.477 140.46C190.393 118.379 212.039 104.133 236.84 94.7113C240.609 93.2823 244.376 92.6515 248.142 92.4197C261.222 91.7195 269.122 99.5904 268.285 112.85C267.871 118.082 266.664 123.406 265.063 128.376C261.657 139.337 255.679 149.595 249.504 159.277C239.743 174.555 229.785 189.657 219.03 206.046C221.61 204.754 222.801 204.218 223.794 203.506C238.096 193.093 252.395 183.478 268.468 176.651C280.771 171.253 293.072 166.653 306.152 165.953C313.486 165.312 320.817 165.47 327.946 166.648C353.294 171.324 360.932 198.172 343.619 220.299C335.857 230.562 326.121 238.657 315.99 246C308.243 251.874 300.299 257.171 290.965 263.625C294.73 263.393 296.91 263.343 299.091 262.894C324.463 260.387 347.629 265.512 368.795 276.451C374.333 279.407 378.678 283.696 381.83 289.318C387.542 299.634 386.115 311.564 376.771 320.812C371.801 325.569 366.24 329.397 360.284 332.871C355.916 335.366 350.956 337.33 346.196 338.673C317.036 348.195 287.681 356.743 257.747 360.769C256.954 360.86 255.962 361.173 253.781 361.622C256.353 362.724 258.134 363.517 259.717 364.134C273.572 368.929 286.828 374.79 299.087 382.561C307.194 387.815 314.704 393.736 319.829 401.925C321.207 404.36 322.586 406.795 323.37 409.497C327.488 422.388 321.304 434.864 308.008 440.575C299.277 444.367 290.16 445.012 281.443 444.415C264.604 443.352 247.967 441.268 232.128 437.099C212.134 431.61 193.139 423.414 174.74 414.552C162.673 408.554 151.004 402.113 138.937 396.115C132.607 392.851 126.476 389.365 119.946 386.722C110.646 382.801 102.143 377.592 94.8341 370.651C90.6867 366.538 89.4987 366.276 84.5317 370.235C77.3795 375.841 70.6225 381.8 64.4582 388.29C58.2952 394.381 52.7235 401.401 46.7567 408.068C37.4087 418.512 31.4592 419.991 19.7859 414.746C16.6196 413.514 13.4547 411.882 10.4873 410.426C0.20085 405.222 -1.55587 397.246 5.81118 386.63C11.5857 378.19 17.5579 369.927 24.1227 362.195C30.6875 354.462 37.8463 346.861 45.0038 339.66C47.9859 336.725 48.5892 334.063 47.4119 330.608C43.2938 317.717 36.5941 306.518 28.9013 296.03C17.6591 280.365 5.82019 265.366 -5.22446 249.878C-10.7468 242.134 -15.4735 233.501 -19.6063 224.999C-21.9677 220.084 -23.5335 214.28 -23.9113 208.738C-24.6588 195.262 -12.9335 184.944 -0.061417 187.259C4.09666 188.179 8.45097 189.675 11.6133 192.105C28.8116 204.296 45.0155 217.598 55.4541 236.547C55.8479 237.299 56.4406 237.83 57.0333 238.36C57.0333 238.36 57.2322 238.138 58.4202 238.401Z" fill="#3B3D3E"/>
</svg>
