<svg width="272" height="253" viewBox="0 0 272 253" fill="none" xmlns="http://www.w3.org/2000/svg">
<path fill-rule="evenodd" clip-rule="evenodd" d="M85.0407 199.837C84.5921 199.591 84.1417 199.344 83.6931 199.096C80.9281 201.998 78.1631 204.899 75.3981 207.8C75.7317 207.945 76.0653 208.092 76.3989 208.237L85.0407 199.837ZM309.07 31.9868C309.474 32.2532 309.875 32.5183 310.277 32.7847C317.282 28.1666 324.286 23.5484 331.288 18.9303C330.84 18.6205 330.389 18.3108 329.939 18.0023C322.982 22.6638 316.027 27.3253 309.07 31.9868ZM179.305 120.631C186.564 115.9 193.822 111.167 201.081 106.437L199.914 105.646C197.207 107.384 194.469 109.097 191.807 110.865C189.012 112.723 186.168 114.561 183.586 116.55C181.965 117.796 180.783 119.306 179.405 120.698C174.953 123.944 170.5 127.192 166.046 130.439C164.576 131.14 162.853 131.689 161.673 132.569C152.822 139.163 143.888 145.713 135.354 152.492C126.902 159.207 118.734 166.091 110.753 173.065C106.816 176.504 103.584 180.313 100.033 183.955C100.434 184.137 100.834 184.319 101.235 184.501C107.621 178.731 113.692 172.785 120.464 167.23C133.098 156.87 146.161 146.751 158.989 136.497C161.445 134.534 163.637 132.419 165.95 130.375C170.402 127.127 174.854 123.879 179.305 120.631ZM77.7108 159.264C69.3988 165.376 61.0435 171.463 52.7824 177.608C42.9871 184.896 33.2483 192.219 23.5491 199.564C22.2015 200.585 20.965 201.747 20.1075 202.979C16.7714 207.785 10.363 207.339 4.32601 207.149C0.784462 207.038 -1.34725 203.316 0.963518 201.134C7.33792 195.115 13.537 188.966 20.6503 183.36C42.7194 165.965 65.1863 148.803 87.4778 131.54C89.3909 130.059 91.0608 128.431 93.0286 126.988C95.0491 125.505 96.7322 122.879 100.391 126.143C101.378 127.024 104.571 126.615 106.409 127.251C112.81 129.466 114.185 131.213 112.156 135.803C109.451 141.92 106.154 147.92 103.054 153.955C100.79 158.361 98.5756 162.781 96.0838 167.128C92.9324 172.624 89.2364 177.983 86.3394 183.537C84.6318 186.813 84.0173 190.349 82.911 193.767C83.3162 194.055 83.7233 194.345 84.1285 194.633C84.4961 193.947 84.6412 193.145 85.2707 192.595C93.4093 185.483 101.665 178.43 109.798 171.314C117.235 164.807 124.062 157.949 132.031 151.759C149.262 138.375 166.376 124.871 184.756 112.228C220.106 87.9093 256.371 64.2016 292.12 40.1472C310.874 27.5279 329.336 14.7098 347.95 1.99487C348.847 1.38175 349.938 0.898646 351.591 0C351.478 1.47735 351.412 2.34413 351.346 3.20963C351.663 3.33455 352.098 3.58821 352.202 3.53722C354.554 2.35815 356.94 3.20708 357.493 4.43842C358.141 5.88008 357.996 8.03555 356.778 9.2108C352.798 13.0591 348.297 16.6766 343.756 20.2418C339.781 23.3648 335.621 26.3922 331.3 29.2946C320.307 36.675 310.441 44.7844 298.932 51.841C295.784 53.7709 293.636 56.4477 291.012 58.7727C290.286 59.4152 289.574 60.0755 288.729 60.6414C270.319 73.0032 251.934 85.3829 233.444 97.6911C225.074 103.263 216.41 108.632 208.02 114.192C202.196 118.052 196.755 122.179 190.842 125.97C189.067 127.108 188.128 130.109 183.914 128.353C183.814 128.313 182.762 129.1 182.415 129.587C181.273 131.197 180.093 132.81 179.213 134.488C177.496 137.761 173.329 139.304 169.633 141.309C166.641 142.933 164.536 145.284 161.835 147.18C159.1 149.103 154.441 150.583 153.648 152.761C152.566 155.732 148.856 156.63 146.97 158.786C143.385 162.888 139.393 166.845 135.22 170.688C129.728 175.745 124.899 181.46 117.906 185.34C112.035 188.6 109.26 192.992 104.571 196.588C98.3795 201.336 93.2774 206.768 88.1394 212.096C84.3811 215.99 82.3625 220.922 77.6165 224.023C73.8601 226.477 73.3399 229.665 70.4279 231.913C64.4437 236.534 61.1434 242.12 57.2399 247.429C54.1979 251.572 50.0532 253.358 43.8107 252.648C41.4321 252.378 37.8284 254.608 36.1679 250.395C34.9842 247.389 32.5886 247.792 34.2378 244.634C48.7169 216.942 63.2223 189.256 77.7127 161.566C78.0406 160.942 78.2819 160.296 78.5627 159.659C78.28 159.528 77.9954 159.396 77.7108 159.264Z" fill="#3B3D3E"/>
<path fill-rule="evenodd" clip-rule="evenodd" d="M281.848 3.92969C282.47 4.81049 282.668 5.72188 283.418 6.0482C287.88 7.97806 288.074 9.13036 283.718 11.4962C274.388 16.563 264.802 21.4195 255.631 26.6125C240.614 35.1184 225.702 43.7136 211.029 52.4885C202.408 57.6445 193.966 62.9854 186.098 68.659C174.563 76.9775 163.52 85.6122 152.455 94.2213C144.949 100.062 137.729 106.071 130.455 112.046C127.964 114.095 124.793 113.185 123.278 112.05C121.917 111.032 121.331 108.405 122.336 107.271C126.985 102.026 132.097 96.9491 137.427 92.0008C174.122 57.9275 221.561 31.7125 272.275 7.91305C275.334 6.47776 278.625 5.263 281.848 3.92969Z" fill="#3B3D3E"/>
</svg>
