<svg width="568" height="586" viewBox="0 0 568 586" fill="none" xmlns="http://www.w3.org/2000/svg">
<path fill-rule="evenodd" clip-rule="evenodd" d="M578.636 38.292C578.753 38.4574 578.868 38.6236 578.984 38.7872L609.92 27.8886C609.842 27.7115 609.765 27.5319 609.684 27.3537L578.636 38.292ZM354.625 365.062C361.713 352.051 370.03 339.401 371.002 324.594C365.544 338.085 360.085 351.572 354.625 365.062V365.062ZM370.323 239.718C369.677 237.883 369.188 235.976 368.361 234.224C355.023 205.971 326.112 207.644 304.779 221.873C297.823 226.51 292.722 232.575 288.026 238.884C283.84 244.505 279.821 250.509 277.278 256.818C270.934 272.566 269.889 288.853 271.939 305.005C274.792 327.475 281.233 348.677 297.048 365.984C306.307 376.111 317.359 383.713 332.06 386.268C336.289 387.002 338.363 385.635 340.244 382.273C354.056 357.599 365.841 332.301 371.586 305.155C376.277 282.998 377.614 261.047 370.323 239.718V239.718ZM517.677 73.3548C532.86 64.1057 548.043 54.859 563.226 45.6099C550.983 51.8802 538.98 58.6243 527.2 65.709C523.747 67.7853 520.927 70.8312 517.803 73.4241C510.116 75.977 505.761 82.0791 501.049 87.7921C506.592 82.9811 512.135 78.1676 517.677 73.3548V73.3548ZM330.692 397.719C306.357 393.209 288.091 381.381 275.25 363.442C250.701 329.144 244.503 291.102 260.037 250.119C267.331 230.872 281.287 215.528 300.828 205.533C317.326 197.096 334.332 197.043 350.907 203.231C367.395 209.383 380.291 219.763 387.189 234.942C393.098 247.951 396.6 262.043 395.469 276.789C394.561 288.586 393.531 300.425 391.463 312.136C390.218 319.191 387.12 326.104 384.442 332.959C378.145 349.065 371.601 365.096 365.697 382.163C369.301 379.726 373.2 377.589 376.451 374.79C386.941 365.756 393.91 354.484 399.481 342.547C412.902 313.785 417.979 283.565 422.133 253.186C425.744 226.764 429.59 200.359 438.196 174.561C455.053 124.032 487.361 84.2334 535.663 55.2744C565.248 37.5375 597.905 27.2788 630.218 16.0296C642.38 11.7946 654.216 6.61236 666.208 1.88318C666.862 1.62376 667.602 1.56787 669.08 1.24955C668.053 3.02921 667.366 4.22197 667.227 4.46123C669.406 5.13818 671.624 5.82841 673.842 6.5168C672.912 8.68797 672.533 11.3513 670.921 12.9134C668.533 15.2285 665.456 17.1599 662.345 18.5534C653.801 22.3798 645.054 25.7651 636.447 29.4647C626.621 33.6913 616.883 38.1199 607.052 42.338C604.663 43.3634 601.939 43.6535 599.583 44.7273C588.308 49.865 576.855 54.7142 565.955 60.5239C556.171 65.7422 547.26 72.4858 537.514 77.7858C530.088 81.8238 523.752 86.9082 517.569 92.3109C502.691 105.313 488.945 118.932 478.839 135.823C464.665 159.513 455.589 184.632 449.043 210.368C445.144 225.705 444.768 241.622 442.229 257.226C439.604 273.34 436.417 289.409 433.204 305.463C431.585 313.553 430.164 321.796 427.217 329.561C423.458 339.473 418.528 349.087 413.562 358.606C410.337 364.779 406.815 371.034 402.252 376.407C391.667 388.883 377.816 396.417 361.033 397.921C355.913 398.381 352.701 399.961 349.969 404.356C329.762 436.879 304.704 466.022 275.427 491.974C257.96 507.459 240.46 523.063 221.671 537.047C197.436 555.082 170.874 569.734 141.495 578.843C136.744 580.316 131.693 581.159 126.763 581.505C124.712 581.648 122.616 579.727 120.542 578.746C121.865 577.12 122.858 574.859 124.586 574.01C127.533 572.563 130.933 571.966 134.159 571.084C136.339 570.488 138.691 570.327 140.72 569.436C162.604 559.817 183.028 547.761 202.105 533.767C251.803 497.307 294.064 454.616 326.803 404.099C328.008 402.241 329.108 400.323 330.692 397.719V397.719Z" fill="#3B3D3E"/>
<path d="M578.636 38.292L578.47 37.8204L577.845 38.0403L578.227 38.5807L578.636 38.292ZM578.984 38.7872L578.577 39.077L578.795 39.3839L579.15 39.2588L578.984 38.7872ZM609.92 27.8886L610.086 28.3602L610.596 28.1807L610.378 27.6866L609.92 27.8886ZM609.684 27.3537L610.14 27.1471L609.95 26.7299L609.518 26.8821L609.684 27.3537ZM371.002 324.594L371.501 324.627L370.539 324.407L371.002 324.594ZM368.361 234.224L367.908 234.437L367.908 234.437L368.361 234.224ZM304.779 221.873L305.057 222.289L305.057 222.289L304.779 221.873ZM288.026 238.884L288.427 239.183L288.427 239.183L288.026 238.884ZM277.278 256.818L276.814 256.631L276.814 256.631L277.278 256.818ZM271.939 305.005L271.443 305.068L271.443 305.068L271.939 305.005ZM297.048 365.984L296.679 366.321L296.679 366.321L297.048 365.984ZM332.06 386.268L331.975 386.761L331.975 386.761L332.06 386.268ZM340.244 382.273L339.808 382.029L339.808 382.029L340.244 382.273ZM371.586 305.155L371.096 305.051L371.096 305.051L371.586 305.155ZM563.226 45.6099L563.486 46.0369L562.998 45.1648L563.226 45.6099ZM527.2 65.709L527.458 66.1375L527.458 66.1375L527.2 65.709ZM517.803 73.4241L517.961 73.8986L518.05 73.869L518.122 73.8089L517.803 73.4241ZM501.049 87.7921L500.664 87.474L501.377 88.1697L501.049 87.7921ZM275.25 363.442L274.844 363.733L274.844 363.733L275.25 363.442ZM260.037 250.119L260.505 250.296L260.505 250.296L260.037 250.119ZM300.828 205.533L300.601 205.088L300.601 205.088L300.828 205.533ZM350.907 203.231L350.733 203.699L350.733 203.699L350.907 203.231ZM387.189 234.942L387.644 234.736L387.644 234.736L387.189 234.942ZM395.469 276.789L395.968 276.828L395.968 276.828L395.469 276.789ZM391.463 312.136L390.971 312.049L390.971 312.049L391.463 312.136ZM384.442 332.959L384.908 333.141L384.908 333.141L384.442 332.959ZM365.697 382.163L365.224 381.999L364.734 383.418L365.977 382.577L365.697 382.163ZM376.451 374.79L376.777 375.169L376.777 375.169L376.451 374.79ZM399.481 342.547L399.934 342.758L399.934 342.758L399.481 342.547ZM422.133 253.186L422.628 253.254L422.628 253.254L422.133 253.186ZM438.196 174.561L437.721 174.403L437.721 174.403L438.196 174.561ZM535.663 55.2744L535.92 55.7033L535.92 55.7033L535.663 55.2744ZM630.218 16.0296L630.383 16.5018L630.383 16.5018L630.218 16.0296ZM666.208 1.88318L666.392 2.34832L666.392 2.34798L666.208 1.88318ZM669.08 1.24955L669.513 1.49946L670.077 0.523616L668.975 0.76075L669.08 1.24955ZM667.227 4.46123L666.795 4.20952L666.479 4.75236L667.079 4.93872L667.227 4.46123ZM673.842 6.5168L674.301 6.71363L674.52 6.20375L673.99 6.03929L673.842 6.5168ZM670.921 12.9134L670.573 12.5543L670.573 12.5544L670.921 12.9134ZM662.345 18.5534L662.549 19.0097L662.549 19.0097L662.345 18.5534ZM636.447 29.4647L636.25 29.0054L636.25 29.0054L636.447 29.4647ZM607.052 42.338L606.855 41.8785L606.854 41.8785L607.052 42.338ZM599.583 44.7273L599.79 45.1823L599.79 45.1823L599.583 44.7273ZM565.955 60.5239L565.72 60.0827L565.72 60.0827L565.955 60.5239ZM537.514 77.7858L537.275 77.3466L537.275 77.3466L537.514 77.7858ZM517.569 92.3109L517.24 91.9344L517.239 91.9344L517.569 92.3109ZM478.839 135.823L479.268 136.08L479.268 136.08L478.839 135.823ZM449.043 210.368L448.558 210.244L448.558 210.244L449.043 210.368ZM442.229 257.226L442.722 257.307L442.722 257.307L442.229 257.226ZM433.204 305.463L433.694 305.561L433.694 305.561L433.204 305.463ZM427.217 329.561L426.75 329.384L426.75 329.384L427.217 329.561ZM413.562 358.606L414.005 358.837L414.005 358.837L413.562 358.606ZM402.252 376.407L401.871 376.084L401.871 376.084L402.252 376.407ZM361.033 397.921L360.989 397.423L360.988 397.423L361.033 397.921ZM349.969 404.356L349.545 404.092L349.545 404.092L349.969 404.356ZM275.427 491.974L275.095 491.599L275.095 491.599L275.427 491.974ZM221.671 537.047L221.969 537.448L221.969 537.448L221.671 537.047ZM141.495 578.843L141.346 578.365L141.346 578.365L141.495 578.843ZM126.763 581.505L126.798 582.003L126.798 582.003L126.763 581.505ZM120.542 578.746L120.154 578.43L119.752 578.925L120.328 579.198L120.542 578.746ZM124.586 574.01L124.806 574.459L124.806 574.459L124.586 574.01ZM134.159 571.084L134.291 571.567L134.291 571.567L134.159 571.084ZM140.72 569.436L140.921 569.894L140.922 569.894L140.72 569.436ZM202.105 533.767L202.401 534.17L202.401 534.17L202.105 533.767ZM326.803 404.099L326.383 403.827L326.383 403.827L326.803 404.099ZM578.227 38.5807C578.338 38.7366 578.463 38.9167 578.577 39.077L579.392 38.4974C579.273 38.3305 579.168 38.1782 579.044 38.0032L578.227 38.5807ZM579.15 39.2588L610.086 28.3602L609.754 27.417L578.818 38.3156L579.15 39.2588ZM610.378 27.6866C610.303 27.5173 610.222 27.3277 610.14 27.1471L609.229 27.5603C609.309 27.7361 609.381 27.9058 609.463 28.0906L610.378 27.6866ZM609.518 26.8821L578.47 37.8204L578.802 38.7635L609.851 27.8253L609.518 26.8821ZM355.064 365.301C362.12 352.349 370.519 339.573 371.501 324.627L370.503 324.561C369.54 339.228 361.307 351.752 354.186 364.823L355.064 365.301ZM370.539 324.407C365.081 337.898 359.622 351.385 354.161 364.875L355.088 365.25C360.549 351.76 366.008 338.273 371.466 324.782L370.539 324.407ZM370.795 239.552C370.169 237.775 369.654 235.791 368.813 234.01L367.908 234.437C368.722 236.161 369.185 237.991 369.852 239.884L370.795 239.552ZM368.813 234.01C362.073 219.733 351.365 212.976 339.625 211.621C327.916 210.269 315.238 214.296 304.502 221.457L305.057 222.289C315.653 215.221 328.097 211.297 339.511 212.614C350.894 213.928 361.31 220.461 367.908 234.437L368.813 234.01ZM304.502 221.457C297.472 226.143 292.33 232.264 287.625 238.586L288.427 239.183C293.114 232.886 298.173 226.878 305.057 222.289L304.502 221.457ZM287.625 238.585C283.433 244.215 279.382 250.261 276.814 256.631L277.742 257.005C280.26 250.757 284.248 244.795 288.427 239.183L287.625 238.585ZM276.814 256.631C270.432 272.476 269.385 288.853 271.443 305.068L272.435 304.942C270.393 288.853 271.437 272.656 277.742 257.005L276.814 256.631ZM271.443 305.068C274.302 327.589 280.766 348.907 296.679 366.321L297.417 365.646C281.7 348.447 275.281 327.361 272.435 304.942L271.443 305.068ZM296.679 366.321C305.991 376.506 317.137 384.182 331.975 386.761L332.146 385.776C317.582 383.244 306.624 375.716 297.417 365.646L296.679 366.321ZM331.975 386.761C334.152 387.139 335.85 386.989 337.264 386.25C338.671 385.514 339.72 384.234 340.681 382.517L339.808 382.029C338.887 383.674 337.958 384.759 336.801 385.364C335.65 385.965 334.198 386.132 332.146 385.776L331.975 386.761ZM340.681 382.517C354.503 357.825 366.315 332.476 372.075 305.258L371.096 305.051C365.367 332.126 353.61 357.372 339.808 382.029L340.681 382.517ZM372.075 305.258C376.775 283.06 378.128 261.006 370.796 239.556L369.85 239.88C377.099 261.088 375.779 282.937 371.096 305.051L372.075 305.258ZM517.937 73.7819C525.529 69.1573 533.12 64.5333 540.712 59.9094C548.303 55.2854 555.894 50.6615 563.486 46.0369L562.966 45.1829C555.374 49.8074 547.783 54.4314 540.191 59.0553C532.6 63.6793 525.009 68.3032 517.417 72.9278L517.937 73.7819ZM562.998 45.1648C550.744 51.441 538.731 58.1907 526.943 65.2805L527.458 66.1375C539.229 59.0578 551.223 52.3194 563.454 46.0549L562.998 45.1648ZM526.943 65.2805C525.177 66.3421 523.582 67.6462 522.048 68.9976C520.5 70.361 519.04 71.7473 517.484 73.0393L518.122 73.8089C519.69 72.508 521.202 71.0749 522.709 69.748C524.229 68.4092 525.77 67.1523 527.458 66.1375L526.943 65.2805ZM517.645 72.9496C509.791 75.5581 505.339 81.8051 500.664 87.474L501.435 88.1102C506.183 82.3532 510.441 76.3959 517.961 73.8986L517.645 72.9496ZM501.377 88.1697C506.919 83.3587 512.463 78.5452 518.005 73.7323L517.349 72.9773C511.807 77.7901 506.264 82.6036 500.722 87.4145L501.377 88.1697ZM330.783 397.228C306.57 392.74 288.419 380.981 275.657 363.151L274.844 363.733C287.763 381.782 306.144 393.678 330.601 398.211L330.783 397.228ZM275.657 363.151C251.2 328.982 245.033 291.115 260.505 250.296L259.569 249.942C243.973 291.089 250.202 329.305 274.844 363.733L275.657 363.151ZM260.505 250.296C267.752 231.172 281.618 215.92 301.056 205.978L300.601 205.088C280.955 215.136 266.91 230.572 259.569 249.942L260.505 250.296ZM301.056 205.978C317.414 197.613 334.273 197.555 350.733 203.699L351.082 202.762C334.392 196.532 317.238 196.58 300.601 205.088L301.056 205.978ZM350.733 203.699C367.127 209.817 379.903 220.117 386.734 235.149L387.644 234.736C380.679 219.408 367.664 208.95 351.082 202.762L350.733 203.699ZM386.734 235.149C392.618 248.103 396.094 262.109 394.97 276.751L395.968 276.828C397.107 261.976 393.578 247.799 387.644 234.736L386.734 235.149ZM394.97 276.751C394.063 288.547 393.034 300.364 390.971 312.049L391.956 312.223C394.028 300.485 395.06 288.625 395.968 276.828L394.97 276.751ZM390.971 312.049C389.737 319.041 386.668 325.887 383.977 332.777L384.908 333.141C387.572 326.322 390.699 319.341 391.956 312.223L390.971 312.049ZM383.977 332.777C377.683 348.874 371.133 364.92 365.224 381.999L366.17 382.326C372.069 365.272 378.608 349.256 384.908 333.141L383.977 332.777ZM365.977 382.577C369.526 380.177 373.499 377.992 376.777 375.169L376.125 374.412C372.902 377.186 369.076 379.274 365.417 381.749L365.977 382.577ZM376.777 375.169C387.341 366.071 394.347 354.729 399.934 342.758L399.028 342.335C393.472 354.239 386.54 365.442 376.125 374.412L376.777 375.169ZM399.934 342.758C413.389 313.922 418.474 283.636 422.628 253.254L421.638 253.119C417.484 283.494 412.414 313.648 399.028 342.335L399.934 342.758ZM422.628 253.254C426.24 226.829 430.081 200.468 438.67 174.72L437.721 174.403C429.099 200.251 425.249 226.7 421.637 253.119L422.628 253.254ZM438.67 174.72C455.488 124.309 487.715 84.6038 535.92 55.7033L535.406 54.8456C487.006 83.863 454.618 123.756 437.721 174.403L438.67 174.72ZM535.92 55.7033C565.45 37.9994 598.046 27.7591 630.383 16.5018L630.054 15.5574C597.764 26.7985 565.046 37.0755 535.406 54.8456L535.92 55.7033ZM630.383 16.5018C642.557 12.2627 654.423 7.06798 666.392 2.34832L666.025 1.41804C654.008 6.15675 642.204 11.3264 630.054 15.5574L630.383 16.5018ZM666.392 2.34798C666.672 2.23694 666.981 2.16509 667.429 2.07959C667.869 1.99559 668.439 1.89911 669.186 1.73835L668.975 0.76075C668.243 0.918314 667.704 1.00894 667.241 1.09733C666.786 1.1842 666.398 1.27001 666.024 1.41839L666.392 2.34798ZM668.647 0.999641C667.619 2.78078 666.934 3.97145 666.795 4.20952L667.659 4.71294C667.799 4.47249 668.487 3.27764 669.513 1.49946L668.647 0.999641ZM667.079 4.93872C669.258 5.6155 671.476 6.30599 673.693 6.99432L673.99 6.03929C671.772 5.35083 669.555 4.66087 667.375 3.98373L667.079 4.93872ZM673.382 6.31998C673.141 6.88352 672.937 7.47405 672.745 8.05569C672.551 8.6436 672.37 9.21558 672.167 9.7724C671.761 10.8877 671.295 11.8549 670.573 12.5543L671.269 13.2725C672.159 12.4098 672.688 11.2643 673.107 10.1146C673.317 9.53895 673.506 8.94037 673.695 8.36944C673.885 7.79225 674.078 7.23568 674.301 6.71363L673.382 6.31998ZM670.573 12.5544C668.235 14.8203 665.211 16.7218 662.14 18.0971L662.549 19.0097C665.701 17.598 668.83 15.6366 671.269 13.2724L670.573 12.5544ZM662.14 18.0971C653.592 21.9253 644.888 25.2923 636.25 29.0054L636.645 29.9241C645.22 26.2378 654.009 22.8343 662.549 19.0097L662.14 18.0971ZM636.25 29.0054C631.334 31.1199 626.44 33.2847 621.549 35.4472C616.657 37.6101 611.768 39.7707 606.855 41.8785L607.249 42.7975C612.168 40.6872 617.062 38.5244 621.954 36.3618C626.846 34.1989 631.734 32.0361 636.645 29.924L636.25 29.0054ZM606.854 41.8785C605.701 42.3737 604.461 42.6936 603.178 43.0309C601.909 43.3645 600.598 43.715 599.376 44.2723L599.79 45.1823C600.924 44.6658 602.153 44.3343 603.432 43.9981C604.697 43.6655 606.014 43.3276 607.249 42.7974L606.854 41.8785ZM599.376 44.2723C588.118 49.4024 576.638 54.2632 565.72 60.0827L566.19 60.9651C577.072 55.1651 588.499 50.3275 599.79 45.1823L599.376 44.2723ZM565.72 60.0827C560.807 62.7029 556.117 65.7042 551.45 68.7036C546.777 71.7065 542.129 74.7069 537.275 77.3466L537.753 78.2251C542.645 75.5647 547.325 72.5433 551.991 69.5448C556.662 66.5428 561.319 63.5632 566.19 60.9651L565.72 60.0827ZM537.275 77.3466C529.8 81.4111 523.431 86.5243 517.24 91.9344L517.898 92.6874C524.072 87.2922 530.376 82.2365 537.753 78.2251L537.275 77.3466ZM517.239 91.9344C502.35 104.947 488.556 118.607 478.41 135.566L479.268 136.08C489.333 119.257 503.031 105.679 517.898 92.6874L517.239 91.9344ZM478.41 135.566C464.204 159.31 455.113 184.477 448.558 210.244L449.528 210.491C456.066 184.786 465.126 159.717 479.268 136.08L478.41 135.566ZM448.558 210.244C446.6 217.947 445.529 225.788 444.629 233.64C443.729 241.501 443.002 249.359 441.735 257.146L442.722 257.307C443.994 249.489 444.726 241.586 445.623 233.754C446.521 225.911 447.587 218.125 449.528 210.491L448.558 210.244ZM441.735 257.146C439.112 273.25 435.926 289.31 432.714 305.365L433.694 305.561C436.907 289.507 440.096 273.431 442.722 257.307L441.735 257.146ZM432.714 305.365C431.09 313.476 429.678 321.667 426.75 329.384L427.685 329.739C430.65 321.924 432.079 313.63 433.694 305.561L432.714 305.365ZM426.75 329.384C423.003 339.265 418.086 348.854 413.119 358.375L414.005 358.837C418.97 349.32 423.914 339.682 427.685 329.739L426.75 329.384ZM413.119 358.374C409.896 364.543 406.395 370.756 401.871 376.084L402.633 376.731C407.234 371.313 410.777 365.015 414.005 358.837L413.119 358.374ZM401.871 376.084C391.367 388.464 377.635 395.931 360.989 397.423L361.078 398.419C377.996 396.903 391.967 389.303 402.633 376.731L401.871 376.084ZM360.988 397.423C358.389 397.656 356.229 398.178 354.36 399.227C352.487 400.279 350.944 401.84 349.545 404.092L350.394 404.62C351.726 402.477 353.155 401.051 354.85 400.099C356.551 399.144 358.557 398.645 361.078 398.419L360.988 397.423ZM349.545 404.092C329.365 436.571 304.339 465.677 275.095 491.599L275.759 492.348C305.069 466.366 330.16 437.187 350.394 404.62L349.545 404.092ZM275.095 491.599C257.624 507.088 240.141 522.677 221.372 536.646L221.969 537.448C240.779 523.449 258.295 507.83 275.759 492.348L275.095 491.599ZM221.372 536.646C197.173 554.654 170.662 569.277 141.346 578.365L141.643 579.32C171.087 570.192 197.698 555.51 221.969 537.448L221.372 536.646ZM141.346 578.365C136.639 579.825 131.627 580.662 126.728 581.006L126.798 582.003C131.76 581.655 136.85 580.806 141.643 579.32L141.346 578.365ZM126.728 581.006C125.86 581.067 124.936 580.691 123.907 580.111C123.396 579.824 122.89 579.505 122.36 579.184C121.838 578.866 121.299 578.551 120.756 578.294L120.328 579.198C120.822 579.431 121.323 579.724 121.841 580.038C122.352 580.348 122.887 580.685 123.416 580.983C124.466 581.573 125.615 582.086 126.798 582.003L126.728 581.006ZM120.93 579.062C121.276 578.637 121.596 578.175 121.904 577.719C122.215 577.257 122.509 576.808 122.818 576.379C123.439 575.516 124.059 574.826 124.806 574.459L124.365 573.562C123.385 574.043 122.645 574.908 122.006 575.795C121.686 576.24 121.376 576.714 121.075 577.16C120.77 577.612 120.47 578.042 120.154 578.43L120.93 579.062ZM124.806 574.459C127.696 573.04 131.002 572.466 134.291 571.567L134.027 570.602C130.865 571.467 127.369 572.086 124.365 573.562L124.806 574.459ZM134.291 571.567C135.359 571.274 136.459 571.091 137.596 570.861C138.717 570.633 139.856 570.362 140.921 569.894L140.519 568.978C139.556 569.401 138.504 569.656 137.397 569.881C136.306 570.102 135.139 570.298 134.027 570.602L134.291 571.567ZM140.922 569.894C162.841 560.259 183.297 548.183 202.401 534.17L201.809 533.363C182.759 547.338 162.367 559.375 140.519 568.978L140.922 569.894ZM202.401 534.17C252.14 497.68 294.446 454.946 327.222 404.371L326.383 403.827C293.682 454.286 251.466 496.935 201.809 533.364L202.401 534.17ZM327.222 404.371C328.432 402.505 329.544 400.569 331.119 397.979L330.265 397.459C328.672 400.078 327.583 401.976 326.383 403.827L327.222 404.371Z" fill="#3B3D3E"/>
</svg>
