<svg width="568" height="586" fill="none" xmlns="http://www.w3.org/2000/svg">
	<path fill-rule="evenodd" clip-rule="evenodd" d="M579 38v1l31-11v-1l-31 11ZM355 365c7-13 15-26 16-40l-16 40Zm15-125-2-6c-13-28-42-26-63-12-7 5-12 11-17 17l-11 18c-6 16-7 32-5 48 3 22 9 44 25 61 9 10 20 18 35 20 4 1 6 0 8-4 14-24 26-50 32-77 4-22 6-44-2-65ZM518 73l45-27-36 20-9 7c-8 3-12 9-17 15l17-15ZM331 398c-25-5-43-17-56-35-24-34-30-72-15-113 7-19 21-34 41-44 16-9 33-9 50-3 16 6 29 17 36 32 6 13 10 27 8 42 0 12-1 23-4 35-1 7-4 14-7 21l-18 49 10-7c11-9 18-21 23-32 14-29 19-59 23-90 4-26 8-53 16-78 17-51 49-91 98-120 29-17 62-28 94-39l36-14 3-1-2 3 7 3-3 6-9 6-26 10-29 13-7 3-34 16-28 17c-8 4-14 9-20 14-15 13-29 27-39 44-14 24-23 49-30 74-4 16-4 32-7 47l-9 48c-1 9-3 17-6 25a273 273 0 0 1-25 46 60 60 0 0 1-41 22c-5 0-8 2-11 6-20 33-45 62-75 88l-53 45c-25 18-51 33-81 42l-14 3-6-3 4-5 9-3 7-2a495 495 0 0 0 186-165l4-6Z" fill="#3B3D3E" />
	<path d="M579 38h-1v1l1-1Zm0 1Zm31-11h1-1Zm0-1ZM371 325h1l-1-1v1Zm-3-91Zm-63-12Zm-17 17Zm-11 18Zm-5 48h-1 1Zm25 61Zm35 20v1-1Zm8-4Zm32-77h-1 1ZM563 46v-1 1Zm-36 20Zm-9 7v1-1Zm-17 15v-1 1ZM275 363v1-1Zm-15-113h1-1Zm41-44v-1 1Zm50-3v1-1Zm36 32h1-1Zm8 42h1-1Zm-4 35Zm-7 21h1-1Zm-18 49h-1v1h1v-1Zm10-7h1-1Zm23-32h1-1Zm23-90h1-1Zm16-78v-1 1Zm98-120v1-1Zm94-39v1-1Zm36-14Zm3-1h1-1Zm-2 3-1 1h1V4Zm7 3 1-1h-1v1Zm-3 6Zm-9 6h1-1Zm-26 10Zm-29 13Zm-7 3Zm-34 16v-1 1Zm-28 17-1-1 1 1Zm-20 14h-1 1Zm-39 44Zm-30 74Zm-7 47h1-1Zm-9 48 1 1-1-1Zm-6 25v-1 1Zm-13 29Zm-12 17Zm-41 22v-1 1Zm-11 6Zm-75 88Zm-53 45Zm-81 42v-1 1Zm-14 3Zm-6-3-1-1v1h1Zm4-5Zm9-3v1-1Zm7-2v1-1Zm61-35Zm125-130h-1 1ZM578 39h1v-1l-1 1Zm1 0 31-11v-1l-31 11v1Zm31-11v-1l-1 1h1Zm0-1-32 11 1 1 31-11v-1ZM355 365c7-13 16-25 17-40h-1c-1 14-10 27-17 40h1Zm16-41-17 41h1l16-40v-1Zm0-84-2-6h-1l2 6h1Zm-2-6c-7-14-18-21-29-22-12-2-25 2-35 9v1c11-7 23-11 35-9 11 1 21 7 28 21h1Zm-64-13c-8 5-13 11-17 18 5-6 10-12 17-17v-1Zm-17 18c-5 5-9 11-11 18h1c2-6 6-12 10-18Zm-11 18c-7 15-8 32-6 48h1c-2-16-1-32 6-48h-1Zm-6 48c3 23 10 44 26 61-15-18-22-39-25-61h-1Zm26 61c9 11 20 18 35 21v-1c-14-3-25-10-35-20Zm35 21 5-1c2 0 3-2 4-3l-1-1-3 3-5 1v1Zm9-4c14-25 25-51 31-78h-1c-6 27-17 52-31 77l1 1Zm31-78c5-22 6-44-1-65h-1c7 21 6 43 1 65h1ZM518 74l23-14 22-14v-1l-23 14-23 14 1 1Zm45-29-36 20v1l36-20v-1Zm-36 20-5 4-5 4 1 1 5-4 4-4v-1Zm-9 8c-8 3-13 9-17 14v1c5-6 9-12 17-14v-1Zm-17 15 17-14-1-1-16 14v1ZM331 397c-24-4-43-16-55-34l-1 1c13 18 31 30 56 34v-1Zm-55-34c-25-34-31-72-15-113h-1c-16 41-10 79 15 114l1-1Zm-15-113c7-19 21-34 40-44v-1a83 83 0 0 0-41 45h1Zm40-44c16-8 33-8 50-2v-1c-17-6-34-6-50 2v1Zm50-2c16 6 29 16 36 31h1c-7-16-20-26-37-32v1Zm36 31c6 13 9 27 8 42h1c1-15-2-29-8-42h-1Zm8 42-4 35h1l4-35h-1Zm-4 35c-1 7-4 14-7 21h1c3-7 6-14 7-21h-1Zm-7 21-19 49h1l19-49h-1Zm-18 50 11-8-1-1-11 8 1 1Zm11-8c10-9 17-20 23-32l-1-1c-6 12-12 23-23 32l1 1Zm23-32c13-29 18-59 23-90h-1c-5 30-10 61-23 89l1 1Zm23-90c3-26 7-53 16-78l-1-1c-9 26-13 53-16 79h1Zm16-78c16-51 49-90 97-119l-1-1c-48 29-80 69-97 119l1 1Zm97-119c29-18 62-28 94-39v-1c-32 11-65 21-95 39l1 1Zm94-39 36-15V1l-36 15v1Zm36-15h3V1h-3v1Zm3-1-2 3 1 1 2-4h-1Zm-2 4 7 2V6l-7-2v1Zm6 1v2l-1 2-1 3 2-3 1-2V7l-1-1Zm-2 7-9 5 1 1c3-1 6-3 8-6Zm-9 5-26 11 1 1 26-11-1-1Zm-26 11-14 6-15 7v1l15-7 15-6-1-1Zm-29 13-4 1-4 1 1 1 3-1 4-1v-1Zm-8 2-33 16v1l34-16-1-1Zm-33 16-15 9-14 8 1 1 14-8 14-9v-1Zm-29 17-20 15 1 1c6-6 12-11 20-15l-1-1Zm-20 15c-15 13-28 27-39 44h1c10-17 24-30 39-43l-1-1Zm-39 44c-14 23-23 48-29 74h1c6-25 15-50 29-74h-1Zm-29 74-4 24-3 23h1l3-23 4-24h-1Zm-7 47-9 48 1 1 9-49h-1Zm-9 48c-2 8-3 17-6 24l1 1 6-24-1-1Zm-6 24-14 29 1 1 14-29-1-1Zm-14 29c-3 7-7 13-11 18l1 1 11-18-1-1Zm-11 18a59 59 0 0 1-41 21v1c17-1 31-9 42-21l-1-1Zm-41 21-7 2-4 5v1l5-5 6-2v-1Zm-11 7c-21 33-46 62-75 88h1c29-26 54-55 74-87v-1Zm-75 88c-17 15-35 31-54 45h1c19-14 36-29 54-45h-1Zm-54 45c-24 18-50 32-80 41l1 1c29-9 56-23 80-42h-1Zm-80 41c-4 2-9 3-14 3v1l15-3-1-1Zm-14 3-3-1-2-1-1-1-1 1 2 1 1 1 4 1v-1Zm-6-2 1-1 1-2 2-2h-1l-2 2-1 1-1 1 1 1Zm4-5 9-2v-1c-3 0-7 1-10 3h1Zm9-2 4-1 3-1v-1l-4 1-3 1v1Zm7-2c22-10 42-22 61-36v-1c-19 14-40 26-61 36v1Zm61-36c50-36 92-79 125-130h-1c-32 50-75 93-124 129v1Zm125-130 4-6-1-1-4 7h1Z" fill="#3B3D3E" />
</svg>
