<svg version="1.1" id="Layer_1" xmlns="http://www.w3.org/2000/svg" x="0" y="0" viewBox="0 0 400 300" style="enable-background:new 0 0 400 300" xml:space="preserve">
	<style>
		.st0{fill:#5bdda0}
	</style>
	<path class="st0" d="M61 73c-11-2-20-4-20-12 0-6 6-11 18-11 10 0 19 4 22 10l13-7c-7-14-21-18-35-18-17 0-35 8-35 26 0 20 17 25 35 27 12 1 21 5 21 13 0 3-1 6-3 8-3 4-10 6-17 6-6 0-11-1-15-4-5-2-9-5-11-11l-14 8c3 6 7 11 12 14 4 3 8 5 14 6l13 2c8 0 16-2 22-5 5-2 8-5 11-8 3-4 5-10 5-16 0-21-18-26-36-28zm91 54V94c0-9-4-16-13-16-8 0-13 7-13 16v33h-16V64h14l2 8c3-6 10-9 16-9 8 0 15 3 19 12 5-9 13-11 21-11 18 0 27 11 27 29v34h-16V93c0-8-3-15-12-15-8 0-14 7-14 16v33h-15zm141-63h12v63h-12l-1-9c-3 8-41 11-48 11-18 0-32-11-32-33s14-33 33-33c8 0 44 4 47 10l1-9zm-67 32c0 12 36 19 45 19 21 0 21-38 0-38-9 0-45 7-45 19zm109-58v89h-16V38h16zm32 0v89h-16V38h16z" />
	<path d="M63 143v14h20v14a27 27 0 0 1-18 6l-8-1c-14-3-20-14-20-25 0-9 3-17 9-23 5-4 11-7 19-7 5 0 11 1 16 4 5-2 8-5 11-8a41 41 0 0 0-27-10c-8 0-15 2-20 4-6 3-10 7-13 11-6 8-9 18-9 29 0 12 4 24 14 32 5 4 11 6 18 8a58 58 0 0 0 14 0 40 40 0 0 0 28-14v-34H63zm59-10 1 7c4-7 10-8 16-8s11 2 14 5l-6 12c-3-2-6-4-10-4-8 0-14 4-14 15v30h-14v-57h13zm48 33c1 7 7 12 17 12 6 0 12-1 16-5l9 9c-6 6-16 9-25 9-19 0-31-12-31-30 0-17 12-30 30-30 19 0 31 12 29 35h-45zm31-11c-1-8-6-11-14-11s-14 3-16 11h30zm36 11c1 7 7 12 17 12 6 0 12-1 16-5l9 9c-6 6-16 9-25 9-19 0-31-12-31-30 0-17 12-30 30-30 19 0 31 12 29 35h-45zm31-11c-1-8-6-11-14-11s-14 3-16 11h30zm78-23c-7 0-35 3-40 9l-1-8h-13v47c4-4 11-4 14 0v-19c0-9 28-16 37-16s13 6 13 15v30h14v-30c0-18-10-28-24-28z" style="fill:#a8cf39" />
	<path class="st0" d="M62 212c-10-1-19-3-19-10 0-6 4-10 12-11l6-1 8 2c7-1 13-3 19-6-5-5-11-8-18-9a61 61 0 0 0-13-1c-8 1-15 3-20 7s-9 10-9 18c0 19 16 24 33 26 11 1 19 5 19 13 0 9-9 13-19 13s-20-5-24-14l-13 7c6 16 20 21 37 21 18 0 35-8 35-27 0-21-17-25-34-28zm61-21v17h16v13h-17v26c0 6 4 9 8 9l7-2 4 12c-4 2-7 3-12 3-13 0-21-7-21-22v-26H97v-13h11v-15l15-2zm40 17v32c0 9 5 16 14 16s15-8 15-17v-31h15v60h-13l-1-8c-6 6-12 9-20 9-14 0-25-11-25-29v-32h15zm116-25v85h-14l-1-8c-4 7-11 10-19 10-17 0-30-12-30-32 0-21 13-32 30-32 6 0 16 4 19 10v-33h15zm-49 55c0 11 7 18 16 18 10 0 17-7 17-18 0-10-7-18-17-18-9 0-16 7-16 18zm62-30v60h14v-60h-14zm16-17c0 12-18 12-18 0l2-6c4-4 11-4 14 1l2 5zm66 47c0 18-12 32-31 32s-31-14-31-32c0-17 12-31 31-31s31 14 31 31zm-47 0c0 9 5 18 16 18s16-9 16-18-6-18-16-18c-11 0-16 9-16 18z" />
	<path class="st2" d="m270 173-6 10h15z" />
	<path class="st0" d="M165 35h-8v-5h20v5h-8v19h-4V35zm18-5v10c2-2 15-3 17-3 4 0 7 4 7 8v9h-5v-9c0-3-1-4-3-4-3 0-16 2-16 5v8h-4V30h4zm31 17c0 2 2 4 5 4l5-2 2 3c-1 2-4 3-7 3-6 0-9-4-9-9s3-9 9-9c5 0 9 3 8 10h-13zm9-3c0-2-2-3-4-3s-4 1-5 3h9z" />
</svg>
