<?xml version="1.0" encoding="utf-8"?>
<!-- Generator: Adobe Illustrator 24.3.0, SVG Export Plug-In . SVG Version: 6.00 Build 0) -->
<svg version="1.1" id="Layer_1" xmlns="http://www.w3.org/2000/svg" xmlns:xlink="http://www.w3.org/1999/xlink" x="0px" y="0px" viewBox="0 0 400 300" style="enable-background:new 0 0 400 300;" xml:space="preserve">
	<style type="text/css">
		.st0{fill:#5bdda0; fill-opacity="0.82";}
		.st1{fill:#A8CF39; fill-opacity="0.59";}
	</style>
	<g>
		<g>
			<path class="st0" d="M60.76,72.71c-10.74-1.27-19.93-3.41-19.93-11.23c0-6.66,6-11.89,18.56-11.89c9.69,0,18.12,4.85,21.2,9.97
			l13.44-6.88c-6.77-13.82-21.26-17.79-35.19-17.79c-16.47,0.17-34.64,7.71-34.64,26.1c0,20.04,16.91,24.89,35.19,27.09
			c11.84,1.27,20.71,4.74,20.71,13.16c0,3.08-1.05,5.56-2.75,7.54c-3.69,4.13-10.63,5.89-17.84,5.89c-5.23,0-10.46-1.05-14.76-3.25
			c-4.63-2.26-8.37-5.89-10.41-10.96l-14.1,7.27c2.7,6.5,6.5,11.29,11.29,14.76c4.08,2.92,8.92,4.85,14.32,6
			c4.13,0.83,8.59,1.21,13.38,1.21c7.93,0,15.53-1.38,21.75-4.3c4.57-2.04,8.37-4.96,11.18-8.76c2.97-4.07,4.68-9.2,4.68-15.42
			C96.83,79.87,79.43,75.02,60.76,72.71z" />
			<path class="st0" d="M151.89,127.43V93.69c0-8.31-4.35-15.85-12.91-15.85c-8.43,0-13.42,7.54-13.42,15.85v33.74h-15.59V64.29
			h14.44l1.15,7.67c3.32-6.39,10.61-8.69,16.62-8.69c7.54,0,15.08,3.07,18.66,11.76c5.63-8.95,12.91-11.5,21.09-11.5
			c17.89,0,26.71,10.99,26.71,29.91v34h-15.6v-34c0-8.31-3.45-15.34-11.88-15.34c-8.43,0-13.68,7.28-13.68,15.59v33.74H151.89z" />
			<path class="st0" d="M292.83,64.42h12.01v63.01h-11.75l-0.77-9.2c-3.58,7.41-40.95,10.99-47.99,11.12
			c-18.66,0.13-32.46-11.37-32.46-33.48c0-21.73,14.44-33.1,32.85-32.97c8.43,0,44.02,3.96,47.6,10.22L292.83,64.42z M225.97,95.86
			c0,12.01,35.88,19.17,44.86,19.17c21.29,0,21.29-38.21,0-38.21C261.85,76.82,225.97,83.85,225.97,95.86z" />
			<path class="st0" d="M334.69,38.09v89.33h-15.46V38.09H334.69z" />
			<path class="st0" d="M366.71,38.09v89.33h-15.46V38.09H366.71z" />
		</g>
		<g>
			<path class="st1" d="M62.8,143.19v13.55h20.54V171c-4.52,3.63-8.7,5.4-13.05,6.06c-1.65,0.28-3.3,0.39-5.07,0.39
			c-3.19,0-6.11-0.33-8.7-1.05c-13.6-3.36-19.05-14.81-19.05-25.88c0-8.81,2.97-16.69,8.37-22.03c4.74-4.79,11.34-7.6,19.38-7.6
			c5.18,0,10.9,1.54,15.75,4.52c4.57-2.04,8.37-4.96,11.18-8.76c-4.46-3.69-9.53-6.33-14.81-7.87c-3.96-1.21-8.04-1.82-12.11-1.82
			c-7.93,0-14.76,1.65-20.49,4.46c-5.45,2.75-9.86,6.55-13.22,11.07c-5.95,7.82-8.87,17.73-8.87,28.03
			c0,12.61,4.41,24.84,14.37,32.54c4.74,3.74,10.74,6.44,18.12,7.71c3.14,0.55,6.5,0.83,10.08,0.83c1.16,0,2.26-0.05,3.3-0.11
			c7.49-0.5,13.71-2.59,19.11-6c3.52-2.26,6.72-5.07,9.64-8.37v-33.92H62.8z" />
			<path class="st1" d="M121.62,133.06l1.04,6.56c4.37-7.01,10.23-8.05,15.98-8.05c5.86,0,11.49,2.3,14.6,5.4l-6.32,12.19
			c-2.87-2.41-5.52-3.68-10.12-3.68c-7.36,0-14.14,3.9-14.14,14.37v29.88h-14.03v-56.67H121.62z" />
			<path class="st1" d="M170.46,166.4c0.92,7.01,7.01,12.07,16.9,12.07c5.17,0,11.95-1.95,15.18-5.29l8.96,8.85
			c-5.98,6.21-15.75,9.2-24.37,9.2c-19.54,0-31.15-12.07-31.15-30.23c0-17.24,11.72-29.66,30.12-29.66
			c18.97,0,30.8,11.73,28.62,35.06H170.46z M201.27,154.79c-0.92-7.36-6.67-11.04-14.71-11.04c-7.59,0-13.8,3.68-15.86,11.04H201.27
			z" />
			<path class="st1" d="M237.46,166.4c0.92,7.01,7.01,12.07,16.9,12.07c5.17,0,11.95-1.95,15.18-5.29l8.96,8.85
			c-5.98,6.21-15.75,9.2-24.37,9.2c-19.54,0-31.15-12.07-31.15-30.23c0-17.24,11.72-29.66,30.12-29.66
			c18.97,0,30.81,11.73,28.62,35.06H237.46z M268.27,154.79c-0.91-7.36-6.66-11.04-14.71-11.04c-7.58,0-13.79,3.68-15.86,11.04
			H268.27z" />
			<path class="st1" d="M346.29,132.13c-7.16,0-34.91,2.86-40.7,8.54l-0.88-7.71h-12.56v46.92c3.36-4.35,10.85-4.19,13.93,0.55
			v-19.66c0-8.59,27.86-15.86,36.51-15.86c8.98,0,13.66,6.55,13.66,15.2v29.63h14.04v-29.79
			C370.3,142.15,359.62,132.13,346.29,132.13z" />
		</g>
		<g>
			<path class="st0" d="M62.09,212.47c-10.08-1.21-18.67-3.3-18.67-10.79c0-5.23,3.8-9.53,11.73-10.9c1.65-0.28,3.52-0.44,5.62-0.44
			c2.75,0,5.4,0.44,7.76,1.16c7.49-0.5,13.71-2.59,19.11-6c-4.74-4.68-10.85-7.21-17.35-8.43c-3.3-0.55-6.66-0.83-10.02-0.83
			c-1.21,0-2.48,0.06-3.74,0.17c-7.05,0.61-14.15,2.7-19.49,6.66c-5.45,4.02-9.14,9.97-9.14,18.12c0,19.22,15.75,23.9,32.88,25.94
			c11.07,1.27,19.33,4.57,19.33,12.61c0,9.31-9.31,12.89-19.22,12.89c-10.19,0-19.82-4.19-23.57-13.6l-13.11,6.99
			c6.22,15.64,19.33,21.04,36.45,21.04c18.61,0,35.08-8.21,35.08-27.31C95.73,219.3,79.49,214.67,62.09,212.47z" />
			<path class="st0" d="M122.58,190.93v17.13h16.25v12.85h-16.37v26.06c0,5.75,3.11,8.56,7.65,8.56c2.27,0,4.9-0.73,7.05-1.83
			l4.06,12.72c-4.18,1.71-7.65,2.45-12.07,2.57c-12.78,0.49-21.15-6.97-21.15-22.02V220.9H97.02v-12.85h10.99v-15.54L122.58,190.93z
			" />
			<path class="st0" d="M162.89,207.93v31.57c0,9.17,4.9,16.15,14.22,16.15c8.96,0,15.06-7.71,15.06-16.89v-30.83h14.46v60.44h-13.02
			l-0.95-8.2c-6.1,6.12-11.71,9.06-19.96,9.06c-14.1,0-24.38-10.89-24.38-29.61v-31.69H162.89z" />
			<path class="st0" d="M278.94,182.73v85.52h-13.62l-0.96-8.32c-4.54,7.22-11.83,9.66-19,9.66c-17.32,0-30.35-11.74-30.35-31.56
			c0-20.8,12.78-31.57,29.99-31.57c6.21,0,15.89,3.43,19.35,9.66v-33.4H278.94z M229.59,238.03c0,10.52,7.41,17.74,16.73,17.74
			c9.2,0,17.08-6.85,17.08-17.74c0-10.52-7.88-17.62-17.08-17.62C237,220.41,229.59,227.14,229.59,238.03z" />
			<path class="st0" d="M291.61,207.68v60.57h14.59v-60.57H291.61z" />
			<path class="st0" d="M307.52,190.94c0,11.62-17.24,11.62-17.24,0c0-2.31,0.66-4.18,1.87-5.56c3.36-4.35,10.85-4.19,13.93,0.55
			C306.97,187.25,307.52,188.9,307.52,190.94z" />
			<path class="st0" d="M373.68,238.15c0,17.37-11.59,31.44-30.71,31.44c-19.12,0-30.59-14.07-30.59-31.44
			c0-17.25,11.71-31.44,30.47-31.44C361.61,206.71,373.68,220.9,373.68,238.15z M326.96,238.15c0,9.17,5.38,17.74,16.01,17.74
			c10.63,0,16.01-8.56,16.01-17.74c0-9.06-6.21-17.86-16.01-17.86C332.45,220.29,326.96,229.1,326.96,238.15z" />
		</g>
		<polygon class="st2" points="269.54,173.18 264.36,182.73 278.94,182.73 	" />
		<g>
			<path class="st0" d="M164.68,34.51h-7.59v-4.1c6.9,0,12.76,0,19.7,0v4.1h-7.59v19.84h-4.51V34.51z" />
			<path class="st0" d="M183.36,30.41v9.37c1.51-1.95,14.36-2.53,16.28-2.53c4.79,0,6.9,3.25,6.9,8.21v8.89h-4.17v-8.86
			c0-3.08-1.61-4.38-3.83-4.38c-2.46,0-15.19,2.09-15.19,4.62v8.62h-4.17V30.41H183.36z" />
			<path class="st0" d="M214.21,47.4c0.27,2.09,2.09,3.59,5.03,3.59c1.54,0,3.55-0.58,4.51-1.58l2.67,2.64
			c-1.78,1.85-4.68,2.73-7.25,2.73c-5.81,0-9.27-3.59-9.27-8.99c0-5.13,3.49-8.82,8.96-8.82c5.64,0,9.16,3.49,8.51,10.43H214.21z
			 M223.37,43.95c-0.27-2.19-1.98-3.29-4.38-3.29c-2.26,0-4.1,1.1-4.72,3.29H223.37z" />
		</g>
	</g>
</svg>
