<svg width="68" height="73" fill="none" xmlns="http://www.w3.org/2000/svg">
	<path d="M18.5 54.8c-1.5 2.3-7.7 14.4-1.7 15.4 5.1.9 24.2-6.2 12.4-9.7-2.5-.7-28-5-25.9 1.3.5 1.6 1.7.4 2.3-.3 2-1.9 5.1 1.5 6.9 2.4 1.4.7 24.5 6.3 20.9-.2-1.3-2.4-6.3 2.5-6.7 1.3-2.4-7.2-9.4-2.2-12.4 1.5-1 1.2 3-.7 4.2-1.3M5.8 7.7h7.7c1 0 2 0 3-.2.7-.2 0 1.7 0 2.1-.6 2.7-.8 5.3-.8 8v7.7c.2 1.2.4 2.4.4 3.5v5.3c0 3.6.2 7.2-.1 10.8 0 .7-1.5-1.1-1.5-1.2a22.4 22.4 0 0 1-3.5-4.6c-.4-1-.5-2-.7-3L8.9 30C8 26.1 7 22.3 6.6 18.3c-.2-2-.3-4.1-.9-6.1L5.3 11c-.3-.7-.3-.8.5-.8l4.8-.4c.3 0 .8-.2 1.1 0l.6.1c-.2 1.5-.8 2.8-1 4.3L11 19c.1 1.8.6 3.5 1 5.2a51 51 0 0 1 1.6 10v6-.2c-.2-2-.7-3.9-1.3-5.8-.7-2.6-1.5-5.3-2.1-8a7 7 0 0 1-.2-1.6v-8c0-1-.3-1.8-.9-2.8-.2-.3-.6-1.7-.6-.6a45 45 0 0 0 1.2 12.3c.6 2.6 1.2 5.1 1.6 7.7.4 2.5 1.1 5 1.6 7.5l.7 4.2c0 .5 0 1.4.2 2 .3.4.2.5.8.5h2l-3.5-.2c-.6 0-.7-1.3-.8-1.7l-.9-3.9c-.2-1-.5-1.9-.5-2.9" stroke="#0099A8" stroke-width="5" stroke-linecap="square" />
	<path fill-rule="evenodd" clip-rule="evenodd" d="m62.5 33.6-.5-.2v-.2l-1-.3-.6-.4-.9-.3-.7-.3-.9-.4-.7-.3v.1c-.9-.2-1.7-.5-2.5-.5l-.2-.1v.1H53c-.6-.1-1.2 0-1.7-.2a2 2 0 0 0-1 0l-.3-.1v.2l-1.3-.1.1-.3c-.2 0-.3-.3-.6-.2l.3-.4-.4-.1-.2.2h-.3v-.2l.2-.4c0-.3-.3-.1-.5-.2v-.1l-.1-.2.3-.6 1.4-.8c.2-.2.6-.3.7-.5.2-.3.6-.3.8-.5.2-.3.5-.3.7-.5l.7-.5c.5-.5 1.2-.8 1.6-1.3.3 0 .4-.4.7-.4l.7-.7L56 22l.3-.4-1.7.3-.4-.2-.3.3c-.6 0-1.2.3-1.9 0 0 .4-.4.3-.5.5-.8 0-1.4.2-2.2.3H49l-.8.2-.7.1c-.3.2-.6.3-.8.2-.4 0-.5.2-.8.3l-.3-.2-1.8.7-.3-.1-.5.2V24c-.2.2-.5.1-.7 0v-.3l-1.3-.5v-.9h-.3c-.2-.3 0-.7 0-1 .3-.1.3-.1.3-.6 0 .2-.1.2-.2.3l-.1-.2.3-.2-.1-.1.1-1.3h.3L41 19l.1-.2v-.5c.2 0 .4 0 .5.2 0-.4-.2-.4-.4-.5l.2-.1v-1c-.1-.3 0-.6.3-.8l-.2-.1.2-.2v-1c0-.4.3-.7.2-1l.1-1.2c.2-.5.2-1 .3-1.6l-.3.2v.3h-.4l-.3.4c0 .2-.2.3-.1.5-.3 0-.3.3-.4.4-.3.7-.7 1.3-1.2 1.8l-.2.7h-.1l-.5 1-.3-.3-.3.5.3.4-.7 1.2v-.5c-.3 0-.2.2-.3.3h-.3l.1.3h-.1l.2.2a208.6 208.6 0 0 1-.5.3v.2l.3.4-1 1.5v-.3l-.7.5-.5-.7h-.3c.4-.7.6-1.4.8-2l1.3-2.7c.4-1 1-1.8 1.4-2.7l.8-1.5 1.3-2c.2-.4.2-.7.5-1l.5-.9 1.1-2.3.8-1.7.6-.3c.1.2.3.3.2.6l.4-.1c.5.3.8.8 1 1.5l-.2.4-.2.3.3.4-.1.9c0 .2 0 .5-.3.6l.3.1c-.2.3 0 .7-.3.8v.4c0 1-.2 1.7-.3 2.5v.8c-.2.3 0 .6-.4.8l.2.4-.2.2.2.2-.3.8-.3-.3a573.8 573.8 0 0 0 .2.7l-.2.3v.3l.3.1-.2.4h-.3v.3c0 .1-.2.3-.1.6v1.5l-.1.2h.1c0 .3 0 .6-.2.8l-.4.7c0 .1.1.1.4 0l-.2.4h-.4c.2 0 .3.2.4.3v.2s.1.1.2 0h.7c.4-.3.8-.3 1.2-.4l1.4-.3a3 3 0 0 0 1.3-.3c.4-.1.9-.1 1.3-.3l1.4-.2 1.3-.2c.5 0 1 0 1.4-.2.4-.1.9 0 1.3-.2l1.3-.1 1.4-.1 1.4-.2.5.3v.1c0 .3.3.2.4.2l.5.7v.1c.4.2.3.6.2 1l-.2.9c-.5.3-.8 1-1.5 1v.3c-.2.3-.5.5-1 .7l.1.2-.8.7-.3.2c-.3 0-.5 0-.7.3l-.3.3.4-.2v.2c-.3 0-.5.3-.7.5-.2.2-.4.4-.6.4l-.7.1.2.2c-.2.4-.4.5-.7.5a2799.8 2799.8 0 0 0 0 .1l-.8.7c1 0 2 .3 3 .4 1 .2 1.4.4 2.2.8l.4.1.7.4c.3 0 .5 0 .7.2l1.8.8.1.3h.3l1.4.9 1 .8.7 1c.3.3.4.7.4 1.2-.5-.2-.7.4-1.1.6l.6-.2-.4.2-.3.2c-.1 0-.3 0-.3.3-.1-.2-.2.1-.3 0-.2 0 0 .3-.3.2H63l-.4.3-.2-.3v.3l-.2.2-.5-.2h-.3v.4c0-.1 0-.2-.2-.2v.3c-.4 0-.8 0-1.2.2h-.6v.2l-1 .1.1-.3c-.2 0-.3 0-.4.2H58v.1l-.7.1-.2-.5H57v.3l.2.2-.7.2-.2-.2c-.1.3-.4.3-.7.2h-1.1l-.4.2h-1.3l-.1.1c-.3 0-.5-.2-.8 0h-1.6l-.3.1-.3-.1-.3.2c-.4-.2-.7-.3-1-.1h-.2c-.5-.3-1 0-1.5-.1h-1.5l-2-.3-.2-.1-1.3-1-.3-1 .3-.4h2c.8.2 1.6.1 2.3.2l1.4.1h4.2c.9-.2 1.9-.2 2.8-.3l1.5-.2 1.5-.2c.9 0 1.7-.4 2.5-.5.4 0 .9-.3 1.3-.5l1.3-.6Z" fill="#fff" />
</svg>
