<svg width="68" height="73" viewBox="0 0 68 73" fill="none" xmlns="http://www.w3.org/2000/svg">
<path d="M18.5493 54.833C17.0335 57.137 10.7941 69.2012 16.772 70.1975C21.8984 71.0519 41.0307 64.0172 29.2127 60.5087C26.6584 59.7504 1.19324 55.5087 3.29942 61.8273C3.80852 63.3546 4.9936 62.197 5.64996 61.5406C7.5917 59.5989 10.7167 63.0212 12.4723 63.8912C13.8801 64.5889 36.9956 70.1953 33.3978 63.7192C32.0701 61.3293 27.1129 66.2486 26.6902 64.9805C24.3064 57.8292 17.301 62.8296 14.3068 66.5284C13.3714 67.6839 17.2196 65.8173 18.5493 65.1525" stroke="#0099A8" stroke-width="5" stroke-linecap="square"/>
<path d="M5.8252 7.71445C8.39023 7.71445 10.9569 7.74188 13.5215 7.68552C14.4871 7.6643 15.5583 7.74024 16.5016 7.48299C17.2307 7.28415 16.5275 9.22763 16.4437 9.60959C15.8622 12.2614 15.7331 14.9004 15.7204 17.6097C15.7084 20.1753 15.589 22.7884 15.7783 25.3493C15.8649 26.5216 16.1026 27.6552 16.111 28.8358C16.1235 30.5933 16.111 32.3514 16.111 34.1089C16.111 37.679 16.3258 41.333 15.988 44.8794C15.9196 45.5979 14.5249 43.8045 14.4546 43.7293C13.159 42.342 11.8618 40.817 11.0332 39.0927C10.5946 38.18 10.5388 37.0952 10.3026 36.1198C9.8042 34.061 9.39447 31.9851 8.92107 29.9208C8.04478 26.0996 6.99531 22.2551 6.60641 18.3475C6.40346 16.3083 6.25207 14.1509 5.695 12.1702C5.58119 11.7655 5.47725 11.3536 5.3044 10.9695C5.02356 10.3454 5.03539 10.2095 5.81074 10.1593C7.40891 10.056 9.00285 9.95637 10.5992 9.82659C10.9472 9.7983 11.3632 9.63936 11.6987 9.73255C11.855 9.77597 12.3409 9.71862 12.3063 9.93509C12.0767 11.3698 11.5348 12.7467 11.3153 14.1955C11.0763 15.7727 10.9881 17.3753 11.0477 18.9695C11.1149 20.7672 11.6392 22.4937 12.0459 24.2354C12.8084 27.5009 13.4959 30.7707 13.6083 34.1306C13.6769 36.1828 13.6372 38.2405 13.6372 40.2934C13.6372 41.4294 13.5997 40.0616 13.5938 40.0041C13.3915 38.0314 12.8501 36.1168 12.328 34.2102C11.603 31.563 10.7732 28.9368 10.158 26.2607C10.0287 25.6982 9.99161 25.1965 9.99161 24.626C9.99161 21.9835 10.086 19.3237 9.97714 16.6838C9.9314 15.5744 9.66795 14.7558 9.14531 13.8266C8.94881 13.4773 8.51141 12.0843 8.45814 13.1829C8.25686 17.3344 8.76586 21.4867 9.70228 25.5229C10.294 28.0733 10.8613 30.6227 11.2936 33.2047C11.7127 35.7077 12.4385 38.15 12.856 40.6551C13.0899 42.0587 13.3043 43.4665 13.5721 44.8649C13.6755 45.4048 13.6118 46.3467 13.8325 46.8324C14.0666 47.3474 14.003 47.4255 14.6499 47.4255C15.2864 47.4255 15.9229 47.4255 16.5595 47.4255C17.7105 47.4255 14.2656 47.2289 13.1164 47.1651C12.5073 47.1313 12.4134 45.8822 12.3352 45.5304C12.0471 44.2339 11.6531 42.925 11.4166 41.6244C11.2366 40.6345 10.903 39.7404 10.903 38.7021" stroke="#0099A8" stroke-width="5" stroke-linecap="square"/>
<path fill-rule="evenodd" clip-rule="evenodd" d="M62.525 33.6083C62.2979 33.5193 62.1902 33.4772 62.0429 33.4192L61.96 33.2451C61.6605 33.111 61.3701 32.985 61.0828 32.8513C60.8404 32.7385 60.6058 32.6021 60.3594 32.5031C60.0848 32.393 59.8233 32.2511 59.541 32.1527C59.2863 32.0642 58.993 32.045 58.7749 31.864C58.5216 31.6532 58.2085 31.7014 57.9431 31.5488C57.6981 31.4079 57.4306 31.3136 57.1736 31.1992C57.1717 31.2052 57.1591 31.2457 57.1431 31.296C56.3403 31.0579 55.5382 30.7982 54.6567 30.8071C54.6398 30.79 54.5825 30.7329 54.5121 30.6626C54.488 30.7169 54.466 30.7665 54.4434 30.8177C53.9674 30.7838 53.4824 30.7804 53.0087 30.7316C52.4253 30.6714 51.8432 30.7541 51.2572 30.6002C50.9629 30.5229 50.6316 30.541 50.3382 30.6027C50.1586 30.6407 50.1371 30.5134 50.034 30.4514C49.9975 30.5122 49.9606 30.5729 49.9116 30.6545C49.5343 30.6275 49.1459 30.5999 48.7458 30.5714C48.7719 30.4732 48.7878 30.4139 48.8127 30.32C48.6461 30.2189 48.5383 29.9798 48.1644 30.0828C48.3032 29.9388 48.389 29.8497 48.4947 29.7401C48.2595 29.6573 48.1672 29.6247 48.0507 29.5836C48.0075 29.6546 47.9672 29.7213 47.9227 29.7945C47.811 29.7829 47.6829 29.77 47.5594 29.7573C47.5432 29.7049 47.5087 29.6466 47.5221 29.6273C47.6233 29.4856 47.7341 29.3514 47.841 29.2158C47.7544 28.9089 47.5078 29.0578 47.3388 28.9911C47.3516 28.9502 47.3646 28.9095 47.3823 28.8528C47.3156 28.798 47.2446 28.7395 47.1699 28.678C47.2567 28.5129 47.3385 28.3572 47.4547 28.1363C47.8987 27.8791 48.4358 27.627 48.9002 27.2738C49.1402 27.0916 49.457 26.9966 49.6259 26.7768C49.8359 26.504 50.1773 26.5068 50.37 26.2883C50.5827 26.0476 50.8972 25.9896 51.1015 25.7882C51.3258 25.5671 51.6331 25.495 51.8379 25.2945C52.3252 24.8172 52.971 24.5451 53.388 23.9842C53.6707 23.9386 53.808 23.5879 54.1324 23.6298C54.3064 23.3331 54.5793 23.1493 54.8389 22.9481C55.2055 22.6641 55.4699 22.2546 55.8999 22.0428C56.0215 21.9828 56.0936 21.8223 56.2476 21.636C55.647 21.7223 55.1315 21.7962 54.5009 21.8868C54.4501 21.8601 54.2811 21.7709 54.1107 21.6808C53.9721 21.8088 53.8747 21.8988 53.7705 21.9948C53.1687 22.0256 52.551 22.2976 51.8964 22.0588C51.8331 22.3634 51.5091 22.3081 51.3572 22.4562C50.607 22.4134 49.9539 22.6819 49.1899 22.8215C49.1786 22.8164 49.0813 22.7726 48.9886 22.731C48.7008 22.7469 48.5093 23.0015 48.184 22.9509C47.948 22.9138 47.6652 23.0163 47.4573 23.1463C47.2034 23.3049 46.9059 23.3511 46.6577 23.3352C46.3494 23.3156 46.1705 23.5124 45.8881 23.5602C45.8214 23.5305 45.7239 23.4869 45.5887 23.4264C45.0618 23.7448 44.4469 23.8952 43.8446 24.1236C43.7537 24.0728 43.6629 24.0219 43.5456 23.9564L42.9735 24.2287C43.002 24.1056 43.0154 24.0489 43.0431 23.9305C42.771 24.0964 42.5294 24.0108 42.2679 23.8543C42.271 23.7843 42.2745 23.7036 42.2773 23.6351C41.8491 23.459 41.4094 23.2781 41.0081 23.1132C40.9747 22.9339 40.9495 22.7978 40.9169 22.6221C40.9473 22.5821 41.0043 22.5069 41.0612 22.4318L40.9943 22.2913C40.926 22.298 40.8506 22.3053 40.736 22.3164C40.5431 21.9741 40.6267 21.6466 40.7455 21.3257C40.9823 21.155 40.9823 21.155 40.9935 20.7236C40.9077 20.8534 40.8752 20.9026 40.8245 20.9791C40.7859 20.9312 40.7417 20.8769 40.6809 20.8013C40.7963 20.7215 40.8911 20.6561 41.0086 20.5749C40.9365 20.5364 40.8888 20.5105 40.8534 20.4915C40.9132 20.092 40.9731 19.6916 41.0404 19.243L41.2889 19.1247C41.2 19.081 41.1481 19.0552 41.0776 19.0206C41.1314 18.9658 41.1822 18.9144 41.2492 18.8464L41.1284 18.5925C41.1638 18.4802 41.1896 18.3988 41.2153 18.317C41.3884 18.3678 41.5954 18.2955 41.7287 18.499C41.7797 18.147 41.4953 18.1406 41.2575 18.0175C41.3631 17.9546 41.4454 17.9055 41.5319 17.8541C41.5533 17.5416 41.6371 17.2415 41.485 16.8983C41.358 16.612 41.5527 16.3483 41.7597 16.1087C41.6878 16.0672 41.6442 16.0421 41.5573 15.9923C41.6471 15.9237 41.7269 15.8631 41.8286 15.7858C41.8114 15.7592 41.7859 15.7198 41.7105 15.6025C41.7398 15.3955 41.8361 15.1059 41.8078 14.8225C41.7675 14.4188 42.0634 14.1367 42.0156 13.7236C41.9737 13.3614 42.0407 12.9895 42.1374 12.6228C42.2694 12.1229 42.2858 11.5836 42.3564 11.0233L42.0503 11.169C42.0526 11.2381 42.0557 11.3374 42.0597 11.473C41.9503 11.4566 41.8545 11.4421 41.74 11.4251C41.6406 11.5817 41.5183 11.7367 41.4369 11.9141C41.3685 12.0626 41.1743 12.1682 41.2805 12.3897C41.0407 12.4306 41.0071 12.6531 40.9451 12.8425C40.8888 12.82 40.8492 12.8043 40.8182 12.7921C40.5893 13.4849 40.183 14.0539 39.7323 14.594C39.6671 14.8197 39.6017 15.0453 39.5369 15.2687L39.3519 15.3567C39.1956 15.6633 39.0598 15.9299 38.9053 16.2335C38.7829 16.1424 38.6959 16.0778 38.5838 15.9945C38.4705 16.1684 38.3642 16.332 38.2656 16.4835C38.3754 16.6224 38.47 16.7425 38.5639 16.8612C38.3447 17.2576 38.1436 17.6213 37.8864 18.0865C37.8251 17.8307 37.908 17.7159 37.9369 17.5736C37.6476 17.5331 37.7201 17.813 37.6336 17.9415C37.5588 17.9251 37.4845 17.9081 37.3251 17.8723C37.3515 17.9973 37.376 18.1143 37.4006 18.2312C37.358 18.2151 37.3154 18.1989 37.273 18.183C37.3515 18.2398 37.4299 18.2965 37.5163 18.3592C37.4058 18.5089 37.3145 18.6325 37.2243 18.7541C37.1467 18.7293 37.0878 18.7104 37.0244 18.6899C37.005 18.7436 36.9841 18.8005 36.9574 18.8742C37.0635 19.0237 37.176 19.183 37.2788 19.3279C36.9652 19.8253 36.6666 20.2984 36.368 20.7716C36.345 20.7624 36.3219 20.7534 36.2993 20.7442C36.3083 20.683 36.3171 20.6219 36.3392 20.4707C36.0839 20.6604 35.8733 20.817 35.6286 20.999C35.4559 20.7991 35.2964 20.6143 35.065 20.3459C35.0538 20.3428 34.9318 20.3108 34.7772 20.2701C35.1522 19.6121 35.3604 18.9122 35.6119 18.2426C35.9602 17.3159 36.469 16.4925 36.8704 15.6025C37.2882 14.6758 37.827 13.8136 38.3102 12.9216C38.5856 12.4138 38.8455 11.8958 39.1305 11.3942C39.5308 10.6902 39.9215 9.9776 40.3695 9.30943C40.5669 9.01508 40.6468 8.65669 40.9092 8.39105C41.1344 8.163 41.2408 7.80601 41.3965 7.50404C41.7943 6.73303 42.214 5.9764 42.5255 5.15395C42.728 4.61825 42.9998 4.11405 43.2757 3.51997L43.9422 3.20272C44.03 3.37396 44.1819 3.53115 44.0948 3.80587C44.2499 3.75362 44.3947 3.70462 44.5315 3.65836C45.0322 4.02248 45.33 4.52952 45.5523 5.18009C45.5191 5.24526 45.4526 5.3756 45.3312 5.6146C45.3084 5.64055 45.1954 5.76959 45.0595 5.92435C45.212 6.08232 45.3265 6.20096 45.4344 6.31274C45.3887 6.59849 45.3618 6.88934 45.2921 7.16599C45.233 7.4018 45.3932 7.71466 45.0241 7.83937C45.1483 7.88891 45.1881 7.90449 45.2622 7.93397C45.0544 8.16394 45.3278 8.57122 44.9763 8.74501C45.0147 8.85565 45.0491 8.95493 45.09 9.07246C45.0494 9.10581 45.0048 9.1424 44.9554 9.18294C45.0423 10.0158 44.8335 10.8056 44.6778 11.6196C44.6988 11.6636 44.7547 11.7273 44.7511 11.7829C44.7361 12.0077 44.7767 12.3014 44.6591 12.437C44.4676 12.657 44.6651 13.0387 44.3335 13.1647C44.3948 13.3135 44.4517 13.4515 44.5128 13.5993C44.4624 13.6532 44.41 13.7092 44.346 13.7777C44.3759 13.8495 44.4088 13.9282 44.4592 14.0498C44.3911 14.2478 44.3119 14.478 44.2182 14.7505C44.095 14.6441 44.0225 14.5813 43.9219 14.494C43.8999 14.6892 43.8801 14.8653 43.8604 15.0416C43.9234 15.085 43.9862 15.1279 44.0868 15.1962C44.0251 15.2955 43.9466 15.3779 43.92 15.4781C43.8968 15.5658 43.932 15.6736 43.9412 15.7709C43.9979 15.8062 44.0666 15.8487 44.1832 15.9213C44.1185 16.0241 44.0628 16.1118 43.9696 16.2598C43.93 16.2657 43.7998 16.2853 43.6517 16.3075L43.7674 16.5505C43.6292 16.75 43.531 16.8881 43.6043 17.1766C43.729 17.6668 43.6554 18.1834 43.6523 18.6878C43.652 18.7651 43.5516 18.8358 43.4979 18.9086C43.5591 18.9396 43.6097 18.9654 43.6047 18.9627C43.5418 19.2334 43.5177 19.497 43.4184 19.7209C43.3178 19.9487 43.1428 20.1374 42.9643 20.395C42.9769 20.5497 43.1107 20.5281 43.3816 20.3179C43.2665 20.579 43.2279 20.6667 43.1808 20.773C43.0929 20.7687 43.0025 20.7643 42.8303 20.7559C42.9695 20.8932 43.0629 20.9855 43.1684 21.0895C43.1596 21.1417 43.1499 21.2021 43.1337 21.3005C43.2108 21.3279 43.3323 21.4128 43.381 21.3812C43.6193 21.2268 43.8733 21.2664 44.1108 21.2851C44.4644 20.9755 44.9379 21.0473 45.3388 20.9126C45.78 20.7638 46.2371 20.6368 46.7004 20.5829C47.144 20.5309 47.5997 20.4906 48.0054 20.3443C48.4362 20.1889 48.8883 20.169 49.3217 20.0492C49.7635 19.9271 50.2296 19.8711 50.6912 19.8333C51.1362 19.7973 51.5534 19.6503 52.0039 19.6208C52.4618 19.5908 52.9309 19.5223 53.373 19.4108C53.8113 19.3003 54.259 19.3296 54.6952 19.2482C55.1296 19.1671 55.5698 19.1077 56.0109 19.0622C56.4688 19.015 56.9314 18.9997 57.3911 18.9629C57.8328 18.9277 58.2736 18.8829 58.7521 18.8388C58.9008 18.8977 59.0974 18.9753 59.2913 19.0521C59.2778 19.1054 59.2628 19.1662 59.2489 19.2209C59.3539 19.4856 59.558 19.3855 59.7013 19.3998C59.8682 19.6364 60.0245 19.8578 60.1934 20.0972C60.1849 20.1283 60.1682 20.1893 60.1527 20.2458C60.5626 20.4352 60.4914 20.797 60.4379 21.1102C60.3837 21.4264 60.2543 21.7242 60.1513 22.0513C59.6522 22.3881 59.4086 23.0785 58.711 23.1932C58.7362 23.2899 58.7518 23.3496 58.778 23.4495C58.4759 23.6648 58.1562 23.8922 57.7944 24.1497C57.7971 24.1654 57.8105 24.2426 57.8204 24.2999C57.5546 24.5397 57.3022 24.7798 57.0356 25.0017C56.9307 25.0888 56.7904 25.2006 56.6724 25.1867C56.3723 25.1516 56.18 25.2444 56.0184 25.498C55.9441 25.6145 55.7752 25.6615 55.6926 25.8197L56.1303 25.6114C56.1329 25.6986 56.1436 25.7579 56.1333 25.7615C55.8275 25.872 55.6148 26.1197 55.3973 26.3387C55.214 26.5232 54.9856 26.6835 54.7788 26.663C54.5107 26.6364 54.3761 26.8167 54.0545 26.8481C54.1959 26.9321 54.2369 26.9566 54.2785 26.9812C54.0563 27.3672 53.9485 27.4964 53.623 27.4823C53.3625 27.4709 53.2303 27.6393 53.0603 27.782C53.2171 27.7295 53.3738 27.677 53.6433 27.5867C53.3216 27.841 53.0956 28.0195 52.7767 28.2713C53.8623 28.2788 54.8075 28.5602 55.7645 28.7321C56.7394 28.9072 57.235 29.0774 57.974 29.4761C58.1083 29.5483 58.2803 29.5328 58.4212 29.5957C58.665 29.7051 58.8915 29.8656 59.1381 29.9644C59.3645 30.0551 59.6215 30.0577 59.8417 30.1605C60.424 30.4332 60.9657 30.8036 61.5665 31.0381C61.6254 31.061 61.6545 31.1812 61.7021 31.2648C61.8061 31.2797 61.9376 31.2614 62.0299 31.318C62.4807 31.595 62.9405 31.8634 63.3583 32.1912C63.6904 32.4516 64.0408 32.6848 64.3603 32.9768C64.6761 33.2652 64.8744 33.6228 65.137 33.933C65.4086 34.2541 65.503 34.6935 65.5196 35.1559C64.9522 34.9786 64.8011 35.6171 64.3916 35.7807C64.5861 35.7073 64.7807 35.6338 64.9754 35.5603C64.9887 35.593 65.0019 35.6261 65.0153 35.6588L64.6459 35.8347C64.5342 35.8878 64.4215 35.939 64.3112 35.9946C64.1876 36.0571 64.0304 36.0829 64.0183 36.2731C63.865 36.1293 63.8294 36.4008 63.7222 36.3555C63.5299 36.2747 63.612 36.6005 63.4235 36.543C63.3193 36.5114 63.1906 36.5484 63.083 36.5835C62.9501 36.6268 62.8276 36.7002 62.7124 36.755C62.6324 36.6707 62.5766 36.6121 62.4885 36.5192C62.5048 36.6411 62.5152 36.7182 62.5299 36.8255C62.4733 36.8591 62.4067 36.8989 62.2975 36.9639C62.1356 36.8999 61.9436 36.8241 61.7712 36.756C61.675 36.8088 61.6056 36.8469 61.5421 36.8817C61.5537 36.9803 61.563 37.0606 61.5762 37.1716C61.4827 37.0918 61.4112 37.0306 61.3395 36.9696L61.2171 37.0278C61.22 37.1208 61.2229 37.2203 61.2264 37.33C60.852 37.3707 60.4764 37.3526 60.13 37.5286C59.9731 37.6081 59.7521 37.5604 59.5392 37.5714C59.541 37.5679 59.5252 37.6021 59.5009 37.6544C59.1815 37.7074 58.8506 37.7625 58.4428 37.8301C58.5134 37.6668 58.5606 37.5578 58.6044 37.4563C58.4136 37.5142 58.3028 37.5851 58.1555 37.7476C58.136 37.7429 58.1159 37.7403 58.0966 37.7336C58.0566 37.719 58.0171 37.7025 57.9706 37.6839C57.9595 37.725 57.9495 37.7662 57.9373 37.8065C57.9313 37.826 57.9214 37.8443 57.9125 37.8644C57.741 37.8829 57.5684 37.9015 57.3416 37.9258L57.0906 37.3986C57.0592 37.3974 57.0278 37.3964 56.9963 37.3956C56.9863 37.4928 56.9767 37.5901 56.9625 37.7285C57.0052 37.7613 57.0809 37.8191 57.2248 37.9294C56.9339 37.9837 56.6965 38.0282 56.466 38.0711C56.4165 38.0056 56.3795 37.9564 56.3408 37.9052C56.157 38.244 55.8712 38.1768 55.5777 38.1021C55.4841 38.0784 55.3821 38.0747 55.2881 38.086C55.0772 38.1111 54.8688 38.1515 54.6165 38.1932C54.6113 38.187 54.5715 38.1407 54.4889 38.0452C54.3889 38.102 54.269 38.1701 54.0784 38.2786C54.1237 38.2921 54.0689 38.2591 54.0192 38.2634C53.6167 38.2972 53.2213 38.3814 52.8136 38.3802C52.7752 38.3801 52.7396 38.4119 52.7006 38.4191C52.4466 38.4656 52.1975 38.2026 51.9449 38.3528C51.7219 38.4854 51.4818 38.3564 51.2518 38.3826C51.0044 38.4108 50.7533 38.4147 50.5035 38.4246C50.4265 38.4278 50.3448 38.4007 50.2721 38.4161C50.1931 38.4327 50.1223 38.4826 50.014 38.5341C49.9269 38.485 49.815 38.4223 49.7323 38.3757L49.3537 38.5559C49.01 38.4102 48.6643 38.2571 48.3075 38.4619C48.2758 38.4803 48.2254 38.4962 48.1957 38.4823C47.6928 38.2462 47.1913 38.485 46.6803 38.3901C46.1875 38.2986 45.6768 38.3775 45.1759 38.3295C44.5123 38.2663 43.8506 38.1533 43.1882 38.0579C43.1274 38.0493 43.0599 38.0257 43.0105 37.9872C42.5478 37.6279 42.0885 37.2635 41.6714 36.9352C41.5843 36.615 41.5127 36.3519 41.4207 36.0136C41.4822 35.9118 41.5834 35.7447 41.6815 35.5823C42.0393 35.5641 42.3842 35.5283 42.7307 35.5345C43.0791 35.5408 43.4323 35.5625 43.7779 35.6242C44.5347 35.7588 45.2915 35.714 46.0468 35.7906C46.4938 35.8359 46.947 35.742 47.388 35.9274C48.1326 35.8014 48.8896 35.8962 49.6417 35.8982C49.9669 35.899 50.2984 35.951 50.6252 35.8963C50.9263 35.8455 51.2375 35.8448 51.5441 35.8208C52.5026 35.7464 53.4612 35.6765 54.4186 35.5945C54.9172 35.5519 55.4149 35.4975 55.9098 35.4305C56.4082 35.3629 56.9055 35.2386 57.3973 35.1957C58.2592 35.1203 59.0509 34.7998 59.9002 34.6916C60.3487 34.6345 60.7729 34.4121 61.1959 34.2356C61.6081 34.0639 62.005 33.8558 62.525 33.6083Z" fill="white"/>
</svg>
